<?xml version="1.0" standalone="no"?>
<!DOCTYPE svg PUBLIC "-//W3C//DTD SVG 1.1//EN" "http://www.w3.org/Graphics/SVG/1.1/DTD/svg11.dtd" >
<!--
2013-9-30: Created.
-->
<svg>
<metadata>
Created by iconfont
</metadata>
<defs>

<font id="iconfont" horiz-adv-x="1024" >
  <font-face
    font-family="iconfont"
    font-weight="500"
    font-stretch="normal"
    units-per-em="1024"
    ascent="896"
    descent="-128"
  />
    <missing-glyph />
    
    <glyph glyph-name="ic_Text" unicode="&#59053;" d="M533.333333 576V170.666667a21.333333 21.333333 0 1 0-42.666666 0V576H298.666667a21.333333 21.333333 0 0 0 0 42.666667h426.666666a21.333333 21.333333 0 1 0 0-42.666667h-192zM213.333333 832h597.333334A149.333333 149.333333 0 0 0 960 682.666667v-597.333334a149.333333 149.333333 0 0 0-149.333333-149.333333H213.333333A149.333333 149.333333 0 0 0 64 85.333333V682.666667A149.333333 149.333333 0 0 0 213.333333 832z m0-42.666667A106.666667 106.666667 0 0 1 106.666667 682.666667v-597.333334A106.666667 106.666667 0 0 1 213.333333-21.333333h597.333334a106.666667 106.666667 0 0 1 106.666666 106.666666V682.666667A106.666667 106.666667 0 0 1 810.666667 789.333333H213.333333z"  horiz-adv-x="1024" />

    
    <glyph glyph-name="ic_Emoticon1" unicode="&#59054;" d="M512 832c247.424 0 448-200.576 448-448S759.424-64 512-64 64 136.576 64 384 264.576 832 512 832z m0-42.666667a405.333333 405.333333 0 1 1 0-810.666666 405.333333 405.333333 0 0 1 0 810.666666z m187.733333-563.754666a21.333333 21.333333 0 0 0-3.84-29.952c-98.261333-75.946667-266.453333-75.477333-367.061333-0.213334a21.333333 21.333333 0 0 0 25.6 34.176c85.333333-63.914667 232.405333-64.298667 315.306667-0.213333a21.333333 21.333333 0 0 0 29.952-3.84zM384 512a42.666667 42.666667 0 1 0 0-85.333333 42.666667 42.666667 0 0 0 0 85.333333z m256 0a42.666667 42.666667 0 1 0 0-85.333333 42.666667 42.666667 0 0 0 0 85.333333z"  horiz-adv-x="1024" />

    
    <glyph glyph-name="ic_Polling" unicode="&#59055;" d="M810.666667 618.666667h85.333333A64 64 0 0 0 960 554.666667v-554.666667a64 64 0 0 0-64-64h-85.333333a64 64 0 0 0-64 64V554.666667A64 64 0 0 0 810.666667 618.666667z m0-42.666667a21.333333 21.333333 0 0 1-21.333334-21.333333v-554.666667a21.333333 21.333333 0 0 1 21.333334-21.333333h85.333333a21.333333 21.333333 0 0 1 21.333333 21.333333V554.666667a21.333333 21.333333 0 0 1-21.333333 21.333333h-85.333333z m-682.666667-256h85.333333A64 64 0 0 0 277.333333 256v-256A64 64 0 0 0 213.333333-64H128A64 64 0 0 0 64 0v256A64 64 0 0 0 128 320z m0-42.666667a21.333333 21.333333 0 0 1-21.333333-21.333333v-256a21.333333 21.333333 0 0 1 21.333333-21.333333h85.333333a21.333333 21.333333 0 0 1 21.333334 21.333333v256a21.333333 21.333333 0 0 1-21.333334 21.333333H128z m341.333333 554.666667h85.333334A64 64 0 0 0 618.666667 768v-768a64 64 0 0 0-64-64h-85.333334A64 64 0 0 0 405.333333 0V768A64 64 0 0 0 469.333333 832z m0-42.666667a21.333333 21.333333 0 0 1-21.333333-21.333333v-768a21.333333 21.333333 0 0 1 21.333333-21.333333h85.333334a21.333333 21.333333 0 0 1 21.333333 21.333333V768a21.333333 21.333333 0 0 1-21.333333 21.333333h-85.333334z"  horiz-adv-x="1024" />

    
    <glyph glyph-name="ic_GIF_1px" unicode="&#59056;" d="M256 832h512A192 192 0 0 0 960 640v-512a192 192 0 0 0-192-192H256A192 192 0 0 0 64 128V640A192 192 0 0 0 256 832z m0-42.666667A149.333333 149.333333 0 0 1 106.666667 640v-512A149.333333 149.333333 0 0 1 256-21.333333h512a149.333333 149.333333 0 0 1 149.333333 149.333333V640A149.333333 149.333333 0 0 1 768 789.333333H256zM354.389333 512c34.261333 0 62.805333-8.576 85.632-25.770667 22.826667-17.152 37.930667-40.533333 45.269334-70.186666h-48.938667a79.274667 79.274667 0 0 1-30.762667 37.802666c-14.293333 9.386667-31.189333 14.122667-50.773333 14.122667-17.92 0-34.048-4.266667-48.298667-12.885333a88.106667 88.106667 0 0 1-33.450666-36.565334c-8.021333-15.786667-12.032-34.304-12.032-55.637333 0-22.442667 4.096-41.685333 12.245333-57.728 8.106667-16.085333 19.626667-28.330667 34.432-36.778667 14.848-8.448 32-12.672 51.626667-12.672 23.893333 0 44.373333 7.552 61.525333 22.613334 17.152 15.104 27.477333 35.84 30.976 62.122666H346.24v34.901334h144.768v-45.269334a141.952 141.952 0 0 0-22.613333-58.794666 130.133333 130.133333 0 0 0-46.933334-42.154667c-19.413333-10.538667-41.642667-15.786667-66.645333-15.786667-27.989333 0-52.736 6.4-74.24 19.114667a129.536 129.536 0 0 0-49.706667 52.949333C219.178667 308.053333 213.333333 333.781333 213.333333 362.88c0 29.056 5.845333 54.912 17.493334 77.482667a128.554667 128.554667 0 0 0 49.578666 52.736C301.738667 505.685333 326.4 512 354.389333 512z m229.973334-2.474667v-293.290666h-46.506667V509.525333h46.506667z m226.304 0v-38.229333h-123.562667v-90.965333h101.973333v-36.565334h-101.973333v-127.530666h-46.464V509.525333H810.666667z"  horiz-adv-x="1024" />

    
    <glyph glyph-name="ic_attachment" unicode="&#59057;" d="M492.074667 149.290667a106.666667 106.666667 0 0 0-148.608 153.045333l331.861333 331.861333a21.333333 21.333333 0 0 0 30.208-30.165333l-331.904-331.861333a64 64 0 0 1 90.538667-90.538667l331.861333 331.904a149.333333 149.333333 0 1 1-211.2 211.2L253.013333 392.789333a234.666667 234.666667 0 1 1 331.861334-331.861333l271.530666 271.530667a21.333333 21.333333 0 1 0 30.165334-30.165334l-271.530667-271.530666a277.333333 277.333333 0 0 0-394.410667 389.973333L554.666667 754.858667a192 192 0 1 0 271.530666-271.530667l-334.08-334.08h-0.042666z"  horiz-adv-x="1024" />

    
    <glyph glyph-name="ic_Photos_1px" unicode="&#59058;" d="M960 262.314667v-162.048c0-79.189333-67.114667-142.933333-149.333333-142.933334H213.333333c-82.218667 0-149.333333 63.744-149.333333 142.933334V667.733333C64 746.922667 131.114667 810.666667 213.333333 810.666667h597.333334c82.218667 0 149.333333-63.744 149.333333-142.933334V262.314667z m-42.666667-9.344l-201.088 183.296-201.173333-181.461334L744.96 0H810.666667c59.136 0 106.666667 45.141333 106.666666 100.266667v152.746666z m0 57.728V667.733333C917.333333 722.858667 869.802667 768 810.666667 768H213.333333C154.197333 768 106.666667 722.858667 106.666667 667.733333v-516.053333l248.064 247.424a21.333333 21.333333 0 0 0 30.890666-0.853333l100.906667-111.786667 215.466667 194.432a21.333333 21.333333 0 0 0 28.672-0.042667l186.666666-170.154666zM687.530667 0l-318.549334 353.066667-261.973333-261.290667C111.658667 40.576 157.269333 0 213.333333 0h474.197334zM349.44 524.8a82.218667 82.218667 0 0 0-82.261333 82.133333c0 45.354667 36.864 82.133333 82.261333 82.133334 45.44 0 82.304-36.778667 82.304-82.133334A82.218667 82.218667 0 0 0 349.44 524.8z m0 42.666667a39.552 39.552 0 0 1 39.637333 39.466666 39.552 39.552 0 0 1-39.637333 39.466667 39.552 39.552 0 0 1-39.594667-39.466667c0-21.76 17.706667-39.466667 39.594667-39.466666z"  horiz-adv-x="1024" />

    
    <glyph glyph-name="ic_Edit1" unicode="&#59028;" d="M762.069333 571.904l47.573334 47.573333-104.832 104.832-47.573334-47.573333 104.832-104.832z m-60.032-60.032l-104.832 104.832-392.149333-392.149333-24.149333-128.981334 128.981333 24.149334 392.149333 392.149333z m170.154667 165.077333c31.744-31.744 31.744-83.2 0-114.986666l-511.573333-511.573334a42.453333 42.453333 0 0 0-22.186667-11.690666l-202.837333-37.973334a42.453333 42.453333 0 0 0-49.493334 49.536l37.930667 202.794667a42.453333 42.453333 0 0 0 11.690667 22.186667l511.573333 511.573333a81.28 81.28 0 0 0 114.986667 0l109.909333-109.866667zM853.76 0h-342.186667c-56.32 0-56.32 85.333333 0 85.333333h342.186667c56.32 0 56.32-85.333333 0-85.333333z"  horiz-adv-x="1024" />

    
    <glyph glyph-name="ic_Search1" unicode="&#59029;" d="M942.677333 30.634667c40.234667-40.234667-20.096-100.608-60.330666-60.373334l60.330666 60.373334zM260.138667 635.861333a305.493333 305.493333 0 1 1 432.042666-432.042666A305.493333 305.493333 0 0 1 260.138667 635.861333z m-60.330667-492.373333A390.826667 390.826667 0 1 0 752.512 696.192 390.826667 390.826667 0 0 0 199.808 143.488z"  horiz-adv-x="1024" />

    
    <glyph glyph-name="ic_Filter1" unicode="&#59030;" d="M640 345.045333V128a42.666667 42.666667 0 0 0-23.594667-38.144l-170.666666-85.333333A42.666667 42.666667 0 0 0 384 42.666667v302.378666l-289.024 353.28A42.666667 42.666667 0 0 0 128 768h768a42.666667 42.666667 0 0 0 33.024-69.674667L640 345.045333z m-85.333333-190.677333v205.909333a42.666667 42.666667 0 0 0 9.642666 27.050667L805.973333 682.666667H218.026667l241.664-295.338667a42.666667 42.666667 0 0 0 9.642666-27.050667v-248.576l85.333334 42.666667z"  horiz-adv-x="1024" />

    
    <glyph glyph-name="ic_Leaderboard1" unicode="&#59031;" d="M128-42.666667a42.666667 42.666667 0 0 0-42.666667 42.666667V533.333333a85.333333 85.333333 0 0 0 85.333334 85.333334h170.666666V725.333333a85.333333 85.333333 0 0 0 85.333334 85.333334h170.666666a85.333333 85.333333 0 0 0 85.333334-85.333334v-298.666666h170.666666a85.333333 85.333333 0 0 0 85.333334-85.333334v-341.333333a42.666667 42.666667 0 0 0-42.666667-42.666667H128z m725.333333 384h-170.666666v-298.666666h170.666666v298.666666zM341.333333 533.333333H170.666667V42.666667h170.666666V533.333333zM597.333333 725.333333h-170.666666v-682.666666h170.666666V725.333333z"  horiz-adv-x="1024" />

    
    <glyph glyph-name="ic_Attachment1" unicode="&#59032;" d="M243.797333 435.456l278.4 278.4a184.874667 184.874667 0 1 0 261.461334-261.461333l-278.4-278.442667a113.834667 113.834667 0 0 0-159.061334 162.773333l276.565334 276.565334A42.666667 42.666667 0 1 0 683.093333 552.96L406.613333 276.394667a28.458667 28.458667 0 1 1 40.192-40.234667l276.565334 276.565333a99.541333 99.541333 0 0 1-140.8 140.8l-276.522667-276.565333a170.666667 170.666667 0 1 1 241.322667-241.365333l226.304 226.261333a42.666667 42.666667 0 1 0 60.330666-60.330667l-226.261333-226.261333a256 256 0 0 0-363.904 360.149333z"  horiz-adv-x="1024" />

    
    <glyph glyph-name="ic_ChevronLeft1" unicode="&#59033;" d="M444.330667 384l183.168-183.168a42.666667 42.666667 0 0 0-60.330667-60.330667l-213.333333 213.333334a42.666667 42.666667 0 0 0 0 60.330666l213.333333 213.333334a42.666667 42.666667 0 0 0 60.330667-60.330667L444.330667 384z"  horiz-adv-x="1024" />

    
    <glyph glyph-name="ic_Favourite1" unicode="&#59034;" d="M512 118.442667l-217.6-113.578667a42.666667 42.666667 0 0 0-61.781333 45.056l41.514666 240.213333-175.786666 170.154667a42.666667 42.666667 0 0 0 23.552 72.874667l243.2 35.114666 108.672 218.709334a42.666667 42.666667 0 0 0 76.458666 0l108.672-218.709334 243.2-35.114666a42.666667 42.666667 0 0 0 23.594667-72.874667l-175.786667-170.154667 41.472-240.213333a42.666667 42.666667 0 0 0-61.781333-45.056L512 118.442667z m-19.754667 85.930666a42.666667 42.666667 0 0 0 39.509334 0l160.853333-83.968-30.634667 177.408a42.666667 42.666667 0 0 0 12.373334 37.973334l129.493333 125.354666-179.285333 25.856a42.666667 42.666667 0 0 0-32.085334 23.253334L512 672.128 431.530667 510.293333a42.666667 42.666667 0 0 0-32.085334-23.253333l-179.285333-25.856 129.536-125.397333a42.666667 42.666667 0 0 0 12.373333-37.930667l-30.677333-177.408 160.853333 83.968z"  horiz-adv-x="1024" />

    
    <glyph glyph-name="ic_ChevronDown1" unicode="&#59035;" d="M512 316.330667l183.168 183.168a42.666667 42.666667 0 0 0 60.330667-60.330667l-213.333334-213.333333a42.666667 42.666667 0 0 0-60.330666 0l-213.333334 213.333333a42.666667 42.666667 0 0 0 60.330667 60.330667L512 316.330667z"  horiz-adv-x="1024" />

    
    <glyph glyph-name="ic_Minus1" unicode="&#59036;" d="M554.666667 426.666667h298.666666a42.666667 42.666667 0 0 0 0-85.333334H170.666667a42.666667 42.666667 0 0 0 0 85.333334h384z"  horiz-adv-x="1024" />

    
    <glyph glyph-name="ic_ChevronRight1" unicode="&#59037;" d="M579.669333 384L396.501333 567.168a42.666667 42.666667 0 0 0 60.330667 60.330667l213.333333-213.333334a42.666667 42.666667 0 0 0 0-60.330666l-213.333333-213.333334a42.666667 42.666667 0 0 0-60.330667 60.330667L579.669333 384z"  horiz-adv-x="1024" />

    
    <glyph glyph-name="ic_UpDown1" unicode="&#59038;" d="M665.6 204.8l-128-170.688a32 32 0 0 0-51.2 0l-128 170.688A32 32 0 0 0 384 256h256a32 32 0 0 0 25.6-51.2zM665.6 563.2l-128 170.688a32 32 0 0 1-51.2 0L358.4 563.2A32 32 0 0 1 384 512h256a32 32 0 0 1 25.6 51.2z"  horiz-adv-x="1024" />

    
    <glyph glyph-name="ic_List1" unicode="&#59039;" d="M810.666667 128a42.666667 42.666667 0 0 0 0-85.333333H213.333333a42.666667 42.666667 0 0 0 0 85.333333z m0 298.666667a42.666667 42.666667 0 0 0 0-85.333334H213.333333a42.666667 42.666667 0 0 0 0 85.333334z m0 298.666666a42.666667 42.666667 0 0 0 0-85.333333H213.333333a42.666667 42.666667 0 1 0 0 85.333333z"  horiz-adv-x="1024" />

    
    <glyph glyph-name="ic_Dropdown1" unicode="&#59040;" d="M811.712 502.656L536.96 159.232a32 32 0 0 0-49.92 0L212.288 502.656a32 32 0 0 0 24.96 52.032h549.504a32 32 0 0 0 24.96-52.032z"  horiz-adv-x="1024" />

    
    <glyph glyph-name="ic_Plus1" unicode="&#59041;" d="M554.666667 426.666667h298.666666a42.666667 42.666667 0 0 0 0-85.333334h-298.666666v-298.666666a42.666667 42.666667 0 0 0-85.333334 0v298.666666H170.666667a42.666667 42.666667 0 0 0 0 85.333334h298.666666V725.333333a42.666667 42.666667 0 0 0 85.333334 0v-298.666666z"  horiz-adv-x="1024" />

    
    <glyph glyph-name="ic_Schedule1" unicode="&#59042;" d="M981.333333 170.666667a256 256 0 0 0-256-256H298.666667a256 256 0 0 0-256 256V597.333333a128 128 0 0 0 128 128h85.333333V768a42.666667 42.666667 0 0 0 37.674667 42.368L298.666667 810.666667a42.666667 42.666667 0 0 0 42.368-37.674667L341.333333 768v-42.666667h384V768a42.666667 42.666667 0 0 0 37.674667 42.368L768 810.666667a42.666667 42.666667 0 0 0 42.368-37.674667L810.666667 768v-42.666667h42.666666a128 128 0 0 0 128-128v-426.666666z m-85.333333 213.333333H128v-213.333333a170.666667 170.666667 0 0 1 170.666667-170.666667h426.666666a170.666667 170.666667 0 0 1 170.666667 170.666667v213.333333zM256 640H170.666667a42.666667 42.666667 0 0 1-42.666667-42.666667v-128h768V597.333333a42.666667 42.666667 0 0 1-42.666667 42.666667h-42.666666a42.666667 42.666667 0 0 0-85.333334 0H341.333333a42.666667 42.666667 0 0 0-85.034666-4.992L256 640z"  horiz-adv-x="1024" />

    
    <glyph glyph-name="ic_Messages1" unicode="&#59043;" d="M512 853.333333c259.2 0 469.333333-210.133333 469.333333-469.333333 0-72.618667-16.554667-142.933333-47.829333-206.677333l46.805333-210.773334a42.666667 42.666667 0 0 0-50.901333-50.858666l-210.773333 46.805333A467.584 467.584 0 0 0 512-85.333333C252.8-85.333333 42.666667 124.8 42.666667 384S252.8 853.333333 512 853.333333z m0-85.333333a384 384 0 1 1 0-768c64 0 125.653333 15.658667 180.778667 45.141333a42.666667 42.666667 0 0 0 29.397333 4.010667l160.298667-35.626667-35.626667 160.298667a42.666667 42.666667 0 0 0 4.010667 29.397333A382.08 382.08 0 0 1 896 384a384 384 0 0 1-384 384z m-128-298.666667a85.333333 85.333333 0 1 0 0-170.666666 85.333333 85.333333 0 0 0 0 170.666666z m256 0a85.333333 85.333333 0 1 0 0-170.666666 85.333333 85.333333 0 0 0 0 170.666666z"  horiz-adv-x="1024" />

    
    <glyph glyph-name="ic_Projects1" unicode="&#59044;" d="M682.666667 853.333333a298.666667 298.666667 0 0 0 298.666666-298.666666v-341.333334a298.666667 298.666667 0 0 0-298.666666-298.666666H341.333333a298.666667 298.666667 0 0 0-298.666666 298.666666V554.666667a298.666667 298.666667 0 0 0 298.666666 298.666666h341.333334z m0-85.333333H341.333333a213.333333 213.333333 0 0 1-213.333333-213.333333v-341.333334a213.333333 213.333333 0 0 1 213.333333-213.333333h341.333334a213.333333 213.333333 0 0 1 213.333333 213.333333V554.666667a213.333333 213.333333 0 0 1-213.333333 213.333333z m-33.365334-228.864a42.666667 42.666667 0 1 0 65.792-54.272l-211.2-256a42.666667 42.666667 0 0 0-62.890666-3.242667l-130.133334 128.426667a42.666667 42.666667 0 1 0 59.989334 60.757333l96.853333-95.658666z"  horiz-adv-x="1024" />

    
    <glyph glyph-name="ic_Activity1" unicode="&#59045;" d="M512 853.333333c259.2 0 469.333333-210.133333 469.333333-469.333333s-210.133333-469.333333-469.333333-469.333333S42.666667 124.8 42.666667 384 252.8 853.333333 512 853.333333z m0-85.333333a384 384 0 1 1 0-768 384 384 0 0 1 0 768z m0-85.333333a42.666667 42.666667 0 0 0 42.666667-42.666667v-235.093333l175.530666-136.533334a42.666667 42.666667 0 1 0-52.394666-67.413333l-192 149.333333A42.666667 42.666667 0 0 0 469.333333 384V640a42.666667 42.666667 0 0 0 42.666667 42.666667z"  horiz-adv-x="1024" />

    
    <glyph glyph-name="ic_More1" unicode="&#59046;" d="M725.333333 384a85.333333 85.333333 0 1 0 170.666667 0 85.333333 85.333333 0 0 0-170.666667 0z m-298.666666 0a85.333333 85.333333 0 1 0 170.666666 0 85.333333 85.333333 0 0 0-170.666666 0z m-298.666667 0a85.333333 85.333333 0 1 0 170.666667 0 85.333333 85.333333 0 0 0-170.666667 0z"  horiz-adv-x="1024" />

    
    <glyph glyph-name="ic_ChevronUp1" unicode="&#59047;" d="M512 451.669333l-183.168-183.168a42.666667 42.666667 0 1 0-60.330667 60.330667l213.333334 213.333333a42.666667 42.666667 0 0 0 60.330666 0l213.333334-213.333333a42.666667 42.666667 0 0 0-60.330667-60.330667L512 451.669333z"  horiz-adv-x="1024" />

    
    <glyph glyph-name="ic_Uncheck1" unicode="&#59048;" d="M256 793.6h512a153.6 153.6 0 0 0 153.6-153.6v-512a153.6 153.6 0 0 0-153.6-153.6H256a153.6 153.6 0 0 0-153.6 153.6V640a153.6 153.6 0 0 0 153.6 153.6z m0-51.2a102.4 102.4 0 0 1-102.4-102.4v-512a102.4 102.4 0 0 1 102.4-102.4h512a102.4 102.4 0 0 1 102.4 102.4V640a102.4 102.4 0 0 1-102.4 102.4H256z"  horiz-adv-x="1024" />

    
    <glyph glyph-name="ic_Checkbox" unicode="&#59049;" d="M256 793.6h512a153.6 153.6 0 0 0 153.6-153.6v-512a153.6 153.6 0 0 0-153.6-153.6H256a153.6 153.6 0 0 0-153.6 153.6V640a153.6 153.6 0 0 0 153.6 153.6zM376.832 420.864a51.2 51.2 0 0 1-71.936-72.8576l130.0992-128.4608a51.2 51.2 0 0 1 75.4688 3.8912l211.2512 256a51.2 51.2 0 1 1-79.0016 65.1264l-175.616-212.7872L376.832 420.864z"  horiz-adv-x="1024" />

    
    <glyph glyph-name="ic_Settings1" unicode="&#59050;" d="M512 853.333333c59.904 0 111.616-41.642667 123.989333-99.84l2.389334-11.306666a382.890667 382.890667 0 0 0 123.221333-70.485334l10.965333 3.584A127.146667 127.146667 0 0 0 921.685333 618.666667a125.013333 125.013333 0 0 0-25.130666-156.416l-8.618667-7.68a376.192 376.192 0 0 0-0.042667-141.098667l8.661334-7.68a125.013333 125.013333 0 0 0 25.173333-156.458667 127.146667 127.146667 0 0 0-149.162667-56.618666l-11.008 3.584a384.426667 384.426667 0 0 0-123.178666-70.570667l-2.389334-11.264A126.464 126.464 0 0 0 512-85.333333a126.464 126.464 0 0 0-123.989333 99.84l-2.389334 11.306666a382.890667 382.890667 0 0 0-123.221333 70.485334l-10.965333-3.584A127.146667 127.146667 0 0 0 102.314667 149.333333a125.013333 125.013333 0 0 0 25.130666 156.416l8.618667 7.68a376.192 376.192 0 0 0 0.042667 141.098667l-8.661334 7.68a125.013333 125.013333 0 0 0-25.173333 156.458667 127.146667 127.146667 0 0 0 149.162667 56.618666l11.008-3.584a384.426667 384.426667 0 0 0 123.178666 70.570667l2.389334 11.264A126.464 126.464 0 0 0 512 853.333333z m0-85.333333c-19.2 0-35.84-13.354667-39.808-32.042667l-7.594667-35.712c-3.328-15.658667-15.146667-28.16-30.72-32.384A298.368 298.368 0 0 1 303.274667 593.066667a43.264 43.264 0 0 0-43.605334-10.24l-34.986666 11.349333a40.832 40.832 0 0 1-47.872-18.176 40.106667 40.106667 0 0 1 8.064-50.218667l27.477333-24.448c11.946667-10.666667 16.938667-27.136 12.842667-42.581333a291.541333 291.541333 0 0 1-0.042667-149.504 42.453333 42.453333 0 0 0-12.885333-42.666667l-27.392-24.32a40.106667 40.106667 0 0 1-8.106667-50.261333 40.832 40.832 0 0 1 47.914667-18.176l34.986666 11.349333c15.317333 4.949333 32.170667 1.024 43.648-10.24a296.704 296.704 0 0 1 130.56-74.666666c15.530667-4.266667 27.392-16.768 30.72-32.426667l7.594667-35.797333A40.618667 40.618667 0 0 1 512 0c19.2 0 35.84 13.354667 39.808 32.042667l7.594667 35.712c3.328 15.658667 15.146667 28.16 30.72 32.384a298.368 298.368 0 0 1 130.602666 74.794666 43.264 43.264 0 0 0 43.605334 10.24l34.986666-11.349333a40.832 40.832 0 0 1 47.872 18.176 40.106667 40.106667 0 0 1-8.064 50.218667l-27.477333 24.448a42.453333 42.453333 0 0 0-12.842667 42.581333 291.541333 291.541333 0 0 1 0.042667 149.504 42.453333 42.453333 0 0 0 12.885333 42.666667l27.392 24.32a40.106667 40.106667 0 0 1 8.106667 50.261333 40.832 40.832 0 0 1-47.914667 18.176l-34.986666-11.349333c-15.317333-4.949333-32.170667-1.024-43.648 10.24a296.704 296.704 0 0 1-130.56 74.666666 42.794667 42.794667 0 0 0-30.72 32.426667l-7.594667 35.797333A40.618667 40.618667 0 0 1 512 768z m0-229.034667c86.272 0 156.16-69.376 156.16-154.965333 0-85.589333-69.888-154.965333-156.16-154.965333-86.272 0-156.16 69.376-156.16 154.965333 0 85.589333 69.888 154.965333 156.16 154.965333z m0-85.333333c-38.741333 0-70.186667-31.146667-70.186667-69.632 0-38.442667 31.445333-69.632 70.186667-69.632s70.186667 31.146667 70.186667 69.632c0 38.442667-31.445333 69.632-70.186667 69.632z"  horiz-adv-x="1024" />

    
    <glyph glyph-name="ic_Notification1" unicode="&#59051;" d="M512.042667 810.666667a128 128 0 0 0 127.146666-112.682667 308.181333 308.181333 0 0 0 181.034667-280.789333v-214.101334l71.253333-141.226666a42.666667 42.666667 0 0 0-38.101333-61.866667h-220.586667a128.042667 128.042667 0 0 0-241.450666 0h-220.586667a42.666667 42.666667 0 0 0-38.101333 61.866667l71.253333 141.226666v214.101334a308.224 308.224 0 0 0 181.034667 280.746666A128.042667 128.042667 0 0 0 512.085333 810.666667z m0-170.666667a222.805333 222.805333 0 0 1-222.805334-222.805333v-224.256a42.666667 42.666667 0 0 0-4.565333-19.2L240.042667 85.333333h544l-44.586667 88.362667a42.666667 42.666667 0 0 0-4.565333 19.242667v224.256A222.805333 222.805333 0 0 1 512 640z"  horiz-adv-x="1024" />

    
    <glyph glyph-name="ic_Dashboard1" unicode="&#59052;" d="M256 384h42.666667a170.666667 170.666667 0 0 0 170.666666-170.666667v-85.333333a170.666667 170.666667 0 0 0-170.666666-170.666667H256a170.666667 170.666667 0 0 0-170.666667 170.666667v85.333333a170.666667 170.666667 0 0 0 170.666667 170.666667z m0-85.333333a85.333333 85.333333 0 0 1-85.333333-85.333334v-85.333333a85.333333 85.333333 0 0 1 85.333333-85.333333h42.666667a85.333333 85.333333 0 0 1 85.333333 85.333333v85.333333a85.333333 85.333333 0 0 1-85.333333 85.333334H256zM234.666667 810.666667A149.333333 149.333333 0 0 0 384 661.333333v-42.666666a149.333333 149.333333 0 0 0-298.666667 0v42.666666A149.333333 149.333333 0 0 0 234.666667 810.666667z m0-85.333334A64 64 0 0 1 170.666667 661.333333v-42.666666a64 64 0 0 1 128 0v42.666666A64 64 0 0 1 234.666667 725.333333zM725.333333 426.666667h42.666667a170.666667 170.666667 0 0 0 170.666667-170.666667v-128a170.666667 170.666667 0 0 0-170.666667-170.666667h-42.666667a170.666667 170.666667 0 0 0-170.666666 170.666667v128a170.666667 170.666667 0 0 0 170.666666 170.666667z m0-85.333334a85.333333 85.333333 0 0 1-85.333333-85.333333v-128a85.333333 85.333333 0 0 1 85.333333-85.333333h42.666667a85.333333 85.333333 0 0 1 85.333333 85.333333v128a85.333333 85.333333 0 0 1-85.333333 85.333333h-42.666667zM618.666667 810.666667h170.666666a149.333333 149.333333 0 0 0 0-298.666667h-170.666666a149.333333 149.333333 0 0 0 0 298.666667z m0-85.333334a64 64 0 0 1 0-128h170.666666a64 64 0 0 1 0 128h-170.666666z"  horiz-adv-x="1024" />

    
    <glyph glyph-name="ic_File" unicode="&#58961;" d="M256 853.333333h406.698667a85.333333 85.333333 0 0 0 65.536-30.72l190.634666-228.778666A85.333333 85.333333 0 0 0 938.666667 539.221333V85.333333a170.666667 170.666667 0 0 0-170.666667-170.666666H256a170.666667 170.666667 0 0 0-170.666667 170.666666V682.666667a170.666667 170.666667 0 0 0 170.666667 170.666666z m597.333333-768V512h-128a85.333333 85.333333 0 0 0-85.333333 85.333333V768H256a85.333333 85.333333 0 0 1-85.333333-85.333333v-597.333334a85.333333 85.333333 0 0 1 85.333333-85.333333h512a85.333333 85.333333 0 0 1 85.333333 85.333333zM804.906667 597.333333L725.333333 692.821333V597.333333h79.573334zM341.333333 298.666667a42.666667 42.666667 0 0 0 0 85.333333h341.333334a42.666667 42.666667 0 0 0 0-85.333333H341.333333z m0-170.666667a42.666667 42.666667 0 0 0 0 85.333333h256a42.666667 42.666667 0 0 0 0-85.333333H341.333333z m0 341.333333a42.666667 42.666667 0 1 0 0 85.333334h128a42.666667 42.666667 0 0 0 0-85.333334H341.333333z"  horiz-adv-x="1024" />

    
    <glyph glyph-name="ic_World" unicode="&#58962;" d="M556.288 555.733333V426.666667h125.269333a727.936 727.936 0 0 1-20.821333 140.629333 846.506667 846.506667 0 0 0-104.448-11.52z m-85.333333-0.128a847.957333 847.957333 0 0 0-107.690667 11.690667A727.936 727.936 0 0 1 342.442667 426.666667h128.512V555.605333z m85.333333-317.44c37.973333-1.877333 74.965333-6.144 110.250667-12.629333 7.637333 35.84 12.842667 74.794667 15.018666 115.797333h-125.269333v-103.210666z m-85.333333 0.128V341.333333H342.442667c2.133333-41.002667 7.381333-79.914667 15.018666-115.797333a844.8 844.8 0 0 0 113.493334 12.757333z m85.333333-85.589333v-138.112c33.152 21.930667 63.786667 67.370667 86.570667 128.512-27.733333 4.693333-56.746667 7.978667-86.613334 9.6z m-85.333333 0.170667c-30.976-1.578667-61.056-4.906667-89.770667-9.813334 23.466667-63.104 55.338667-109.44 89.770667-130.517333v140.330667z m85.333333 488.32a768 768 0 0 1 76.714667 8.021333c-21.418667 48.853333-48.128 85.290667-76.714667 104.192v-112.213333z m-85.333333-0.170667V755.456c-29.866667-18.261333-57.770667-55.552-79.957334-106.24 25.728-4.053333 52.48-6.826667 79.957334-8.192zM130.346667 426.666667h126.634666c2.688 56.746667 10.624 110.805333 23.04 160.213333a575.018667 575.018667 0 0 0-74.837333 28.074667A382.037333 382.037333 0 0 1 130.346667 426.666667z m0-85.333334c6.826667-61.952 28.416-119.466667 61.184-168.96a553.685333 553.685333 0 0 0 82.858666 32.896c-9.216 42.666667-15.146667 88.448-17.408 136.064H130.346667z m763.306666 85.333334a382.037333 382.037333 0 0 1-74.837333 188.288c-23.210667-10.666667-48.298667-20.053333-74.88-28.074667 12.458667-49.408 20.394667-103.466667 23.04-160.213333h126.72z m0-85.333334h-126.634666a829.824 829.824 0 0 0-17.408-136.064c29.738667-9.216 57.557333-20.224 82.858666-32.853333A381.738667 381.738667 0 0 1 893.653333 341.333333zM332.885333 44.245333a506.794667 506.794667 0 0 0-35.370666 78.890667c-17.322667-5.461333-33.749333-11.605333-49.152-18.346667a385.066667 385.066667 0 0 1 84.522666-60.586666z m358.229334 0a385.066667 385.066667 0 0 1 84.48 60.586667c-15.36 6.698667-31.786667 12.8-49.109334 18.304a506.794667 506.794667 0 0 0-35.413333-78.933333zM332.885333 723.754667a384.597333 384.597333 0 0 1-64.426666-42.88c12.074667-4.608 24.746667-8.917333 37.845333-12.8 8.021333 19.84 16.938667 38.485333 26.581333 55.68z m358.229334 0c9.642667-17.194667 18.56-35.84 26.581333-55.68 13.098667 3.882667 25.770667 8.192 37.888 12.8a384.597333 384.597333 0 0 1-64.469333 42.88zM512-85.333333C252.8-85.333333 42.666667 124.8 42.666667 384S252.8 853.333333 512 853.333333s469.333333-210.133333 469.333333-469.333333-210.133333-469.333333-469.333333-469.333333z"  horiz-adv-x="1024" />

    
    <glyph glyph-name="ic_Birthday" unicode="&#58963;" d="M618.666667 853.333333a149.333333 149.333333 0 0 0 147.84-128H896a85.333333 85.333333 0 0 0 85.333333-85.333333v-85.333333a85.333333 85.333333 0 0 0-85.333333-85.333334v-469.333333a85.333333 85.333333 0 0 0-85.333333-85.333333H213.333333a85.333333 85.333333 0 0 0-85.333333 85.333333V469.333333a85.333333 85.333333 0 0 0-85.333333 85.333334V640a85.333333 85.333333 0 0 0 85.333333 85.333333h129.493333a149.333333 149.333333 0 0 0 254.549334 83.114667A148.48 148.48 0 0 0 618.666667 853.333333zM469.333333 469.333333H213.333333v-469.333333h256V469.333333z m341.333334 0h-256v-469.333333h256V469.333333z m-341.333334 170.666667H128v-85.333333h341.333333V640z m426.666667 0h-341.333333v-85.333333h341.333333V640z m-271.189333 127.701333L618.666667 768a64 64 0 0 1-60.373334-42.666667h120.746667A64 64 0 0 1 618.666667 768zM405.333333 768a64 64 0 0 1-60.373333-42.666667h120.746667A64 64 0 0 1 405.333333 768z"  horiz-adv-x="1024" />

    
    <glyph glyph-name="ic_Drafts" unicode="&#58964;" d="M298.666667 853.333333h347.648a85.333333 85.333333 0 0 0 66.304-31.616l164.352-202.837333A85.333333 85.333333 0 0 0 896 565.12V85.333333a170.666667 170.666667 0 0 0-170.666667-170.666666H298.666667a170.666667 170.666667 0 0 0-170.666667 170.666666V682.666667a170.666667 170.666667 0 0 0 170.666667 170.666666z m368-110.464V622.933333h97.194666l-97.194666 119.936zM298.666667 768a85.333333 85.333333 0 0 1-85.333334-85.333333v-597.333334a85.333333 85.333333 0 0 1 85.333334-85.333333h426.666666a85.333333 85.333333 0 0 1 85.333334 85.333333V537.6h-144a85.333333 85.333333 0 0 0-85.333334 85.333333V768H298.666667z"  horiz-adv-x="1024" />

    
    <glyph glyph-name="ic_Working" unicode="&#58965;" d="M597.333333 768a128 128 0 0 0 128-128h128a128 128 0 0 0 128-128v-426.666667a128 128 0 0 0-128-128H170.666667a128 128 0 0 0-128 128V512a128 128 0 0 0 128 128h128a128 128 0 0 0 128 128zM192 554.666667H170.666667a42.666667 42.666667 0 0 1-42.666667-42.666667v-426.666667a42.666667 42.666667 0 0 1 42.666667-42.666666h21.333333V554.666667z m554.666667 0h-469.333334v-512h469.333334V554.666667zM853.333333 554.666667h-21.333333v-512h21.333333a42.666667 42.666667 0 0 1 42.666667 42.666666V512a42.666667 42.666667 0 0 1-42.666667 42.666667z m-256 128h-170.666666a42.666667 42.666667 0 0 1-42.666667-42.666667h256a42.666667 42.666667 0 0 1-42.666667 42.666667z"  horiz-adv-x="1024" />

    
    <glyph glyph-name="ic_Friends" unicode="&#58966;" d="M512 597.333333a128 128 0 1 0 0 256 128 128 0 0 0 0-256z m0 85.333334a42.666667 42.666667 0 1 1 0 85.333333 42.666667 42.666667 0 0 1 0-85.333333z m-42.666667-85.333334h85.333334a128 128 0 0 0 128-128v-42.666666a128 128 0 0 0-128-128h-85.333334a128 128 0 0 0-128 128v42.666666a128 128 0 0 0 128 128z m0-85.333333a42.666667 42.666667 0 0 1-42.666666-42.666667v-42.666666a42.666667 42.666667 0 0 1 42.666666-42.666667h85.333334a42.666667 42.666667 0 0 1 42.666666 42.666667v42.666666a42.666667 42.666667 0 0 1-42.666666 42.666667h-85.333334z m341.333334-298.666667a128 128 0 1 0 0 256 128 128 0 0 0 0-256z m0 85.333334a42.666667 42.666667 0 1 1 0 85.333333 42.666667 42.666667 0 0 1 0-85.333333z m-42.666667-85.333334h85.333333a128 128 0 0 0 128-128v-42.666666a128 128 0 0 0-128-128h-85.333333a128 128 0 0 0-128 128v42.666666a128 128 0 0 0 128 128z m0-85.333333a42.666667 42.666667 0 0 1-42.666667-42.666667v-42.666666a42.666667 42.666667 0 0 1 42.666667-42.666667h85.333333a42.666667 42.666667 0 0 1 42.666667 42.666667v42.666666a42.666667 42.666667 0 0 1-42.666667 42.666667h-85.333333zM213.333333 213.333333a128 128 0 1 0 0 256 128 128 0 0 0 0-256z m0 85.333334a42.666667 42.666667 0 1 1 0 85.333333 42.666667 42.666667 0 0 1 0-85.333333z m-42.666666-85.333334h85.333333a128 128 0 0 0 128-128v-42.666666a128 128 0 0 0-128-128H170.666667a128 128 0 0 0-128 128v42.666666a128 128 0 0 0 128 128z m0-85.333333a42.666667 42.666667 0 0 1-42.666667-42.666667v-42.666666a42.666667 42.666667 0 0 1 42.666667-42.666667h85.333333a42.666667 42.666667 0 0 1 42.666667 42.666667v42.666666a42.666667 42.666667 0 0 1-42.666667 42.666667H170.666667z"  horiz-adv-x="1024" />

    
    <glyph glyph-name="ic_WatchVideo" unicode="&#58967;" d="M810.666667 810.666667a170.666667 170.666667 0 0 0 170.666666-170.666667v-512a170.666667 170.666667 0 0 0-170.666666-170.666667H213.333333a170.666667 170.666667 0 0 0-170.666666 170.666667V640a170.666667 170.666667 0 0 0 170.666666 170.666667h597.333334z m0-85.333334H213.333333a85.333333 85.333333 0 0 1-85.333333-85.333333v-512a85.333333 85.333333 0 0 1 85.333333-85.333333h597.333334a85.333333 85.333333 0 0 1 85.333333 85.333333V640a85.333333 85.333333 0 0 1-85.333333 85.333333zM409.386667 640c13.141333 0 25.941333-3.797333 36.949333-10.922667l290.56-187.861333a68.138667 68.138667 0 0 0 0-114.389333l-290.56-187.904A68.053333 68.053333 0 0 0 341.333333 196.096V571.904C341.333333 609.493333 371.797333 640 409.386667 640zM426.666667 540.16v-312.32L668.16 384 426.666667 540.16z"  horiz-adv-x="1024" />

    
    <glyph glyph-name="ic_Share2" unicode="&#58968;" d="M810.666667 853.333333a170.666667 170.666667 0 0 1-169.898667-187.008l-315.306667-153.685333a170.666667 170.666667 0 1 1 3.242667-254.421333l311.978667-157.44a170.666667 170.666667 0 1 1 29.056 80.896l-294.357334 148.650666C381.013333 347.221333 384 365.269333 384 384c0 20.138667-3.498667 39.509333-9.898667 57.429333l296.106667 144.298667A170.666667 170.666667 0 1 1 810.666667 853.333333z m0-682.666666a85.333333 85.333333 0 1 0 0-170.666667 85.333333 85.333333 0 0 0 0 170.666667zM213.333333 469.333333a85.333333 85.333333 0 1 0 0-170.666666 85.333333 85.333333 0 0 0 0 170.666666z m597.333334 298.666667a85.333333 85.333333 0 1 0 0-170.666667 85.333333 85.333333 0 0 0 0 170.666667z"  horiz-adv-x="1024" />

    
    <glyph glyph-name="ic_LikeThumb" unicode="&#58969;" d="M432.66048 804.53632c106.33216 33.1776 170.1888-22.528 169.1648-140.65664-0.12288-21.42208-1.10592-40.38656-3.19488-69.2224-4.21888-59.31008-3.8912-76.34944 0.69632-83.968 0.49152-0.77824 1.31072-1.26976 6.9632-2.2528 11.71456-2.048 30.96576-0.90112 58.20416 4.3008 16.26112 3.11296 32.64512 6.67648 50.7904 10.93632 7.90528 1.8432 66.3552 16.22016 81.5104 19.53792 29.65504 6.47168 51.24096 9.216 70.94272 8.02816 57.01632-3.52256 88.18688-41.69728 93.14304-109.19936 7.9872-108.38016-16.46592-324.07552-41.20576-404.6848-26.70592-86.99904-75.73504-121.56928-185.63072-123.4944-66.64192-1.2288-169.04192-1.2288-307.93728 0-49.9712 1.14688-93.96224 13.9264-131.15392 37.96992C280.576-71.51616 254.7712-87.04 225.28-87.04H143.36a81.92 81.92 0 0 0-81.92 81.92V445.44a81.92 81.92 0 0 0 81.92 81.92h81.92c28.63104 0 53.78048-14.66368 68.44416-36.864 59.43296 80.52736 96.256 173.79328 110.592 280.41216a40.96 40.96 0 0 0 28.34432 33.62816zM225.28 445.44H143.36v-450.56h81.92V445.44z m294.66624 219.136c0.4096 53.4528-8.43776 71.14752-38.74816 67.46112-24.3712-142.49984-86.4256-264.6016-185.79456-365.19936l11.79648 12.288v-330.1376c27.77088-32.23552 63.81568-49.5616 109.89568-52.75648l10.32192-0.49152c137.6256-1.14688 239.4112-1.14688 305.152 0 75.44832 1.35168 92.81536 13.59872 108.78976 65.69984 21.79072 70.8608 45.056 276.39808 37.84704 374.5792-2.21184 29.81888-4.58752 32.68608-16.54784 33.46432-10.32192 0.6144-25.55904-1.35168-48.45568-6.30784-13.84448-3.03104-71.35232-17.2032-80.24064-19.2512-19.16928-4.5056-36.57728-8.27392-54.0672-11.63264-76.8-14.7456-125.05088-6.30784-150.65088 36.0448-17.89952 29.57312-18.30912 48.7424-12.288 132.13696 1.92512 27.27936 2.8672 44.76928 2.99008 64.06144z"  horiz-adv-x="1024" />

    
    <glyph glyph-name="ic_relationship" unicode="&#58970;" d="M554.666667 426.666667h85.333333a42.666667 42.666667 0 0 0 0-85.333334h-85.333333v-85.333333a42.666667 42.666667 0 0 0-85.333334 0v85.333333H384a42.666667 42.666667 0 0 0 0 85.333334h85.333333V512a42.666667 42.666667 0 0 0 85.333334 0v-85.333333zM413.696-2.56l-284.373333 292.992c-115.541333 119.04-115.541333 311.466667 0 430.464A291.84 291.84 0 0 0 512 754.517333a291.84 291.84 0 0 0 382.72-33.621333c115.498667-119.04 115.498667-311.466667 0-430.464l-284.416-292.992a131.029333 131.029333 0 0 0-98.304-40.064 131.029333 131.029333 0 0 0-98.304 40.106667z m96.341333 45.269333h3.925334c12.928-0.597333 25.557333 4.352 35.114666 14.165334l284.373334 292.992c83.413333 85.888 83.413333 225.706667 0 311.594666a206.634667 206.634667 0 0 1-292.138667 6.613334 42.666667 42.666667 0 0 0-58.624 0 206.634667 206.634667 0 0 1-292.138667-6.613334c-83.413333-85.930667-83.413333-225.706667 0-311.594666l284.373334-292.992c9.557333-9.813333 22.186667-14.762667 35.114666-14.165334z"  horiz-adv-x="1024" />

    
    <glyph glyph-name="ic_Download1" unicode="&#58971;" d="M554.666667 86.784l16.64 12.8a42.666667 42.666667 0 0 0 52.053333-67.541333l-84.565333-65.28a42.368 42.368 0 0 0-28.8-9.386667 42.453333 42.453333 0 0 0-24.746667 9.386667l-84.650667 65.28a42.666667 42.666667 0 1 0 52.138667 67.584l16.597333-12.8V535.125333a42.666667 42.666667 0 0 0 85.333334 0v-448.384zM533.333333 810.666667a234.88 234.88 0 0 0 227.712-178.005334A235.093333 235.093333 0 0 0 938.666667 404.565333a234.965333 234.965333 0 0 0-208.64-233.642666 42.666667 42.666667 0 0 0-9.386667 84.821333A149.632 149.632 0 0 1 853.333333 404.565333c0 76.8-58.026667 140.970667-133.546666 148.906667a42.666667 42.666667 0 0 0-37.973334 37.973333A149.504 149.504 0 0 1 533.333333 725.333333a149.504 149.504 0 0 1-148.522666-134.058666 42.666667 42.666667 0 0 0-47.36-37.973334A149.546667 149.546667 0 0 1 170.666667 404.565333a149.632 149.632 0 0 1 132.693333-148.821333 42.666667 42.666667 0 0 0-9.386667-84.821333A234.965333 234.965333 0 0 0 85.333333 404.565333a234.922667 234.922667 0 0 0 222.037334 234.752A234.88 234.88 0 0 0 533.333333 810.666667z"  horiz-adv-x="1024" />

    
    <glyph glyph-name="ic_like" unicode="&#58972;" d="M512 719.829333l9.472 9.728a264.789333 264.789333 0 0 0 381.44 0c104.533333-107.52 104.533333-281.344 0-388.821333l-329.728-339.029333a85.333333 85.333333 0 0 0-120.661333-1.706667l-1.706667 1.706667-329.728 339.029333c-104.533333 107.52-104.533333 281.301333 0 388.821333a264.789333 264.789333 0 0 0 381.44 0L512 719.786667z m329.728-319.573333c72.362667 74.368 72.362667 195.413333 0 269.781333a179.456 179.456 0 0 1-259.114667 0l-40.021333-41.173333a42.666667 42.666667 0 0 0-61.184 0l-40.021333 41.173333a179.456 179.456 0 0 1-259.114667 0c-72.362667-74.368-72.362667-195.413333 0-269.824L512 61.184l329.728 339.029333z"  horiz-adv-x="1024" />

    
    <glyph glyph-name="ic_comment" unicode="&#58973;" d="M225.52576 78.31552a92.16 92.16 0 0 1 148.48-72.82688l155.32032 119.84896H819.2a153.6 153.6 0 0 1 153.6 153.6V670.72a153.6 153.6 0 0 1-153.6 153.6h-614.4A153.6 153.6 0 0 1 51.2 670.72v-391.7824a153.6 153.6 0 0 1 153.6-153.6h20.64384l0.08192-47.02208z m102.23616 98.304a51.2 51.2 0 0 1-51.2 51.11808H204.8c-28.2624 0-51.2 22.9376-51.2 51.2V670.72c0 28.2624 22.9376 51.2 51.2 51.2h614.4c28.2624 0 51.2-22.9376 51.2-51.2v-391.7824c0-28.2624-22.9376-51.2-51.2-51.2h-308.10112c-14.5408 0-27.27936-5.89824-36.4544-15.19616l-146.75968-113.2544-0.12288 77.37344z"  horiz-adv-x="1024" />

    
    <glyph glyph-name="ic_Notes" unicode="&#58974;" d="M256 810.666667h512a170.666667 170.666667 0 0 0 170.666667-170.666667v-512a170.666667 170.666667 0 0 0-170.666667-170.666667H256a170.666667 170.666667 0 0 0-170.666667 170.666667V640a170.666667 170.666667 0 0 0 170.666667 170.666667z m0-85.333334a85.333333 85.333333 0 0 1-85.333333-85.333333v-512a85.333333 85.333333 0 0 1 85.333333-85.333333h512a85.333333 85.333333 0 0 1 85.333333 85.333333V640a85.333333 85.333333 0 0 1-85.333333 85.333333H256z m42.666667-170.666666a42.666667 42.666667 0 1 0 0 85.333333h426.666666a42.666667 42.666667 0 0 0 0-85.333333H298.666667z m0-213.333334a42.666667 42.666667 0 0 0 0 85.333334h426.666666a42.666667 42.666667 0 0 0 0-85.333334H298.666667z m0-213.333333a42.666667 42.666667 0 0 0 0 85.333333h213.333333a42.666667 42.666667 0 0 0 0-85.333333H298.666667z"  horiz-adv-x="1024" />

    
    <glyph glyph-name="ic_FriendsRequest" unicode="&#58975;" d="M384 384a341.333333 341.333333 0 0 0 341.333333-341.333333v-85.333334a42.666667 42.666667 0 0 0-42.666666-42.666666H85.333333a42.666667 42.666667 0 0 0-42.666666 42.666666v85.333334a341.333333 341.333333 0 0 0 341.333333 341.333333z m0-85.333333a256 256 0 0 1-256-256v-42.666667h512v42.666667a256 256 0 0 1-256 256z m469.333333 256v-85.333334h85.333334c56.874667 0 56.874667-85.333333 0-85.333333h-85.333334v-85.333333c0-56.874667-85.333333-56.874667-85.333333 0v85.333333h-85.333333c-56.874667 0-56.874667 85.333333 0 85.333333h85.333333V554.666667c0 56.874667 85.333333 56.874667 85.333333 0zM384 853.333333a213.333333 213.333333 0 1 0 0-426.666666A213.333333 213.333333 0 0 0 384 853.333333z m0-85.333333a128 128 0 1 1 0-256 128 128 0 0 1 0 256z"  horiz-adv-x="1024" />

    
    <glyph glyph-name="ic_Place" unicode="&#58976;" d="M512 810.666667c211.925333 0 384-169.301333 384-378.453334 0-103.338667-42.24-200.106667-115.413333-270.506666l-238.677334-234.794667a42.666667 42.666667 0 0 0-59.818666 0l-239.018667 235.093333A374.741333 374.741333 0 0 0 128 432.213333C128 641.365333 300.074667 810.666667 512 810.666667z m0-85.333334c-165.12 0-298.666667-131.413333-298.666667-293.12 0-79.573333 32.426667-154.026667 89.344-209.066666L512 17.152l209.066667 205.696A289.408 289.408 0 0 1 810.666667 432.213333C810.666667 593.92 677.12 725.333333 512 725.333333z m0-128a170.666667 170.666667 0 1 0 0-341.333333 170.666667 170.666667 0 0 0 0 341.333333z m0-85.333333a85.333333 85.333333 0 1 1 0-170.666667 85.333333 85.333333 0 0 1 0 170.666667z"  horiz-adv-x="1024" />

    
    <glyph glyph-name="ic_Photos" unicode="&#58977;" d="M981.333333 253.44V85.333333a170.666667 170.666667 0 0 0-170.666666-170.666666H213.333333a170.666667 170.666667 0 0 0-170.666666 170.666666V682.666667a170.666667 170.666667 0 0 0 170.666666 170.666666h597.333334a170.666667 170.666667 0 0 0 170.666666-170.666666v-424.106667c0.085333-1.706667 0.085333-3.413333 0-5.12z m-85.333333-15.018667l-170.666667 170.581334-161.28-161.28L786.986667 0H810.666667a85.333333 85.333333 0 0 1 85.333333 85.333333v153.088z m0 120.618667V682.666667a85.333333 85.333333 0 0 1-85.333333 85.333333H213.333333a85.333333 85.333333 0 0 1-85.333333-85.333333v-494.336l225.834667 225.834666a42.666667 42.666667 0 0 0 61.866666-1.621333l91.178667-101.290667 188.288 188.245334a42.666667 42.666667 0 0 0 60.330667 0L896 359.04zM672.213333 0l-289.834666 322.048-252.842667-252.842667A85.333333 85.333333 0 0 1 213.333333 0h458.88zM362.666667 512a106.666667 106.666667 0 1 0 0 213.333333 106.666667 106.666667 0 0 0 0-213.333333z m0 85.333333a21.333333 21.333333 0 1 1 0 42.666667 21.333333 21.333333 0 0 1 0-42.666667z"  horiz-adv-x="1024" />

    
    <glyph glyph-name="ic_Saved1" unicode="&#58978;" d="M335.232 851.285333h396.202667a162.56 162.56 0 0 0 162.56-162.56v-655.104a81.28 81.28 0 0 0-132.053334-63.445333L533.333333 153.045333l-228.608-182.869333a81.28 81.28 0 0 0-132.010666 63.445333V688.768a162.56 162.56 0 0 0 162.56 162.56z m0-81.237333a81.28 81.28 0 0 1-81.28-81.28v-655.146667l228.608 182.912a81.28 81.28 0 0 0 101.546667 0l228.608-182.912V688.768a81.28 81.28 0 0 1-81.28 81.28H335.232z"  horiz-adv-x="1024" />

    
    <glyph glyph-name="ic_Chat" unicode="&#58979;" d="M512 853.333333c259.2 0 469.333333-210.133333 469.333333-469.333333 0-72.618667-16.554667-142.933333-47.829333-206.677333l32.256-145.28a85.333333 85.333333 0 0 0-101.802667-101.802667l-145.28 32.256A467.584 467.584 0 0 0 512-85.333333C252.8-85.333333 42.666667 124.8 42.666667 384S252.8 853.333333 512 853.333333z m0-85.333333a384 384 0 1 1 0-768c64 0 125.653333 15.658667 180.778667 45.141333a42.666667 42.666667 0 0 0 29.397333 4.010667l160.298667-35.626667-35.626667 160.298667a42.666667 42.666667 0 0 0 4.010667 29.397333A382.08 382.08 0 0 1 896 384a384 384 0 0 1-384 384z m-128-298.666667a85.333333 85.333333 0 1 0 0-170.666666 85.333333 85.333333 0 0 0 0 170.666666z m256 0a85.333333 85.333333 0 1 0 0-170.666666 85.333333 85.333333 0 0 0 0 170.666666z"  horiz-adv-x="1024" />

    
    <glyph glyph-name="ic_Spam" unicode="&#58980;" d="M497.493333 850.773333a42.666667 42.666667 0 0 0 29.013334 0l384-138.666666a42.666667 42.666667 0 0 0 28.16-40.106667V384c0-234.666667-142.037333-392.448-415.317334-467.797333a42.666667 42.666667 0 0 0-22.4-0.085334C227.413333-10.496 85.333333 147.413333 85.333333 384V672a42.666667 42.666667 0 0 0 28.16 40.106667l384 138.666666zM512 765.354667l-341.333333-123.306667V384c0-191.872 110.293333-317.44 341.205333-382.378667C742.912 68.266667 853.333333 193.962667 853.333333 384V642.048l-341.333333 123.264z m-40.533333-164.992a42.666667 42.666667 0 1 0 85.333333 0v-282.154667a42.666667 42.666667 0 1 0-85.333333 0V600.32zM512 128a42.666667 42.666667 0 1 0 0 85.333333 42.666667 42.666667 0 0 0 0-85.333333z"  horiz-adv-x="1024" />

    
    <glyph glyph-name="ic_Trash" unicode="&#58981;" d="M326.954667 695.466667l28.672 86.016A42.666667 42.666667 0 0 0 396.16 810.666667h230.4a42.666667 42.666667 0 0 0 40.448-29.184l28.672-86.016h199.637333a42.666667 42.666667 0 1 0 0-85.333334h-36.565333l-31.317333-532.309333A128 128 0 0 0 699.648-42.666667H322.986667a128 128 0 0 0-127.786667 120.490667L163.882667 610.133333H128a42.666667 42.666667 0 1 0 0 85.333334h198.954667z m89.941333 0h188.842667l-9.984 29.866666h-168.874667l-9.984-29.866666z m356.394667-85.333334H249.344l31.061333-527.317333A42.666667 42.666667 0 0 1 322.986667 42.666667h376.661333a42.666667 42.666667 0 0 1 42.624 40.149333L773.290667 610.133333z m-189.354667-108.288a42.666667 42.666667 0 0 0 85.162667-5.290666l-19.2-307.2a42.666667 42.666667 0 1 0-85.162667 5.290666l19.2 307.2z m-126.037333-307.2a42.666667 42.666667 0 0 0-85.162667-5.290666l-19.2 307.2a42.666667 42.666667 0 1 0 85.162667 5.290666l19.2-307.2z"  horiz-adv-x="1024" />

    
    <glyph glyph-name="ic_Task" unicode="&#58982;" d="M256 810.666667h512a170.666667 170.666667 0 0 0 170.666667-170.666667v-512a170.666667 170.666667 0 0 0-170.666667-170.666667H256a170.666667 170.666667 0 0 0-170.666667 170.666667V640a170.666667 170.666667 0 0 0 170.666667 170.666667z m0-85.333334a85.333333 85.333333 0 0 1-85.333333-85.333333v-512a85.333333 85.333333 0 0 1 85.333333-85.333333h512a85.333333 85.333333 0 0 1 85.333333 85.333333V640a85.333333 85.333333 0 0 1-85.333333 85.333333H256z m72.832-97.834666L341.333333 614.997333l55.168 55.168a42.666667 42.666667 0 0 0 60.330667-60.330666l-85.333333-85.333334a42.666667 42.666667 0 0 0-60.330667 0l-42.666667 42.666667a42.666667 42.666667 0 0 0 60.330667 60.330667zM554.666667 554.666667A42.666667 42.666667 0 0 0 554.666667 640l169.898666-0.213333a42.666667 42.666667 0 0 0-0.128-85.333334L554.666667 554.666667z m0-213.333334A42.666667 42.666667 0 0 0 554.666667 426.666667l169.898666-0.213334a42.666667 42.666667 0 0 0-0.128-85.333333L554.666667 341.333333z m0-213.333333A42.666667 42.666667 0 0 0 554.666667 213.333333l169.898666-0.213333a42.666667 42.666667 0 0 0-0.128-85.333333L554.666667 128z m-225.792 286.165333l12.501333-12.501333 55.168 55.168a42.666667 42.666667 0 0 0 60.330667-60.330667l-85.333334-85.333333a42.666667 42.666667 0 0 0-60.330666 0l-42.666667 42.666667a42.666667 42.666667 0 0 0 60.330667 60.330666z m0-213.333333l12.501333-12.501333 55.168 55.168a42.666667 42.666667 0 1 0 60.330667-60.330667l-85.333334-85.333333a42.666667 42.666667 0 0 0-60.330666 0l-42.666667 42.666666a42.666667 42.666667 0 0 0 60.330667 60.330667z"  horiz-adv-x="1024" />

    
    <glyph glyph-name="ic_Emoticon" unicode="&#58983;" d="M512-85.333333C252.8-85.333333 42.666667 124.8 42.666667 384S252.8 853.333333 512 853.333333s469.333333-210.133333 469.333333-469.333333-210.133333-469.333333-469.333333-469.333333z m0 85.333333a384 384 0 1 1 0 768 384 384 0 0 1 0-768z m-195.968 178.346667a42.666667 42.666667 0 1 0 51.157333 68.309333c77.781333-58.197333 214.272-58.538667 289.536-0.426667a42.666667 42.666667 0 1 0 52.181334-67.456c-105.898667-81.877333-284.672-81.408-392.874667-0.426666zM362.666667 426.666667a64 64 0 1 0 0 128 64 64 0 0 0 0-128z m298.666666 0a64 64 0 1 0 0 128 64 64 0 0 0 0-128z"  horiz-adv-x="1024" />

    
    <glyph glyph-name="ic_Refresh" unicode="&#58984;" d="M160.768 626.346667C278.485333 797.44 506.752 861.269333 699.050667 767.488c211.797333-103.296 299.733333-358.741333 196.437333-570.538667-103.296-211.797333-358.741333-299.733333-570.538667-196.437333a424.917333 424.917333 0 0 0-194.176 191.872 42.666667 42.666667 0 1 0 76.245334 38.272 339.626667 339.626667 0 0 1 155.349333-153.429333A341.333333 341.333333 0 1 1 216.106667 554.24h72.661333a42.666667 42.666667 0 1 0 0-85.333333h-170.666667a42.666667 42.666667 0 0 0-42.666666 42.666666v170.666667a42.666667 42.666667 0 1 0 85.333333 0v-55.893333z"  horiz-adv-x="1024" />

    
    <glyph glyph-name="ic_inbox1" unicode="&#58985;" d="M810.666667 256V640a85.333333 85.333333 0 0 1-85.333334 85.333333H298.666667a85.333333 85.333333 0 0 1-85.333334-85.333333v-384h171.989334a42.666667 42.666667 0 0 0 42.666666-43.349333l-0.64-42.026667 170.410667-0.085333 0.512 43.264a42.666667 42.666667 0 0 0 42.666667 42.197333H810.666667z m85.333333 0a42.666667 42.666667 0 0 0 41.813333-51.029333l-22.058666-110.421334A170.666667 170.666667 0 0 0 748.373333-42.666667H275.584a170.666667 170.666667 0 0 0-167.338667 137.216l-22.101333 110.421334A42.666667 42.666667 0 0 0 128 256V640a170.666667 170.666667 0 0 0 170.666667 170.666667h426.666666a170.666667 170.666667 0 0 0 170.666667-170.666667v-384zM180.053333 170.666667l11.861334-59.392A85.333333 85.333333 0 0 1 275.626667 42.666667h472.832a85.333333 85.333333 0 0 1 83.626666 68.608l11.946667 59.392h-160.853333l-0.512-43.306667a42.666667 42.666667 0 0 0-42.666667-42.197333l-256 0.170666A42.666667 42.666667 0 0 0 341.333333 128.682667L342.016 170.666667H180.053333z"  horiz-adv-x="1024" />

    
    <glyph glyph-name="ic_Sent" unicode="&#58986;" d="M491.093333 10.282667l-38.186666-62.208a42.666667 42.666667 0 0 0-9.002667-10.410667c-38.826667-32.469333-98.218667-30.72-134.741333 4.224-19.2 18.346667-29.525333 43.733333-27.946667 67.242667l-0.085333 164.181333-187.733334 152.661333a137.344 137.344 0 0 0 37.248 234.666667l749.738667 289.621333a41.173333 41.173333 0 0 0 38.656-3.882666 42.752 42.752 0 0 0 17.962667-47.786667L732.586667 62.165333c-20.181333-72.661333-95.829333-115.242667-168.874667-95.402666a137.898667 137.898667 0 0 0-50.432 25.685333l-22.186667 17.92z m-66.986666 54.016l-57.642667 46.506666v-104.32c-0.042667-0.682667 0.341333-1.664 1.664-2.901333 4.010667-3.84 11.392-4.821333 17.066667-2.730667l38.954666 63.445334z m-35.2 137.984l177.92-143.445334c5.632-4.522667 12.202667-7.850667 19.2-9.770666a52.309333 52.309333 0 0 1 64.341333 35.84l157.824 568.618666-419.285333-451.242666z m-69.802667 50.176L738.858667 704 161.408 481.024a52.010667 52.010667 0 0 1-14.165333-88.832l171.861333-139.733333z"  horiz-adv-x="1024" />

    
    <glyph glyph-name="ic_Doc1" unicode="&#58987;" d="M770.773333 580.266667L712.533333 650.154667V580.266667h58.24zM904.533333 523.690667V115.2a157.866667 157.866667 0 0 0-157.866666-157.866667H285.866667A157.866667 157.866667 0 0 0 128 115.2V652.8A157.866667 157.866667 0 0 0 285.866667 810.666667h365.994666a81.066667 81.066667 0 0 0 62.293334-29.184l171.605333-205.866667a81.066667 81.066667 0 0 0 18.773333-51.925333z m-85.333333-28.757334h-110.933333a81.066667 81.066667 0 0 0-81.066667 81.066667V725.333333h-341.333333A72.533333 72.533333 0 0 1 213.333333 652.8v-537.6A72.533333 72.533333 0 0 1 285.866667 42.666667h460.8a72.533333 72.533333 0 0 1 72.533333 72.533333V494.933333zM303.061333 230.4h426.410667c7.125333 0 12.928-5.12 12.928-11.392v-62.549333c0-6.314667-5.802667-11.392-12.928-11.392H303.061333c-7.125333 0-12.928 5.12-12.928 11.392v62.549333c0 6.314667 5.802667 11.392 12.928 11.392z"  horiz-adv-x="1024" />

    
    <glyph glyph-name="ic_DropdownOutline1" unicode="&#58988;" d="M748.288 564.416a64 64 0 1 0 94.272-86.528l-302.08-329.152a64 64 0 0 0-94.272 0l-301.44 329.216a64 64 0 0 0 94.464 86.4L493.44 286.72l254.848 277.696z"  horiz-adv-x="1024" />

    
    <glyph glyph-name="ic_Audio1" unicode="&#58989;" d="M254.677333 195.328H204.8a119.466667 119.466667 0 0 0-119.466667 119.466667v108.544a119.466667 119.466667 0 0 0 119.466667 119.466666h45.141333a85.333333 85.333333 0 0 1 51.669334 17.493334l192.853333 146.773333a85.333333 85.333333 0 0 0 137.002667-67.84v-517.248a85.333333 85.333333 0 0 0-132.352-71.210667L301.653333 181.205333a85.333333 85.333333 0 0 1-47.018666 14.08zM238.933333 457.472h-28.373333a39.893333 39.893333 0 0 1-39.893333-39.893333v-97.024c0-22.058667 17.877333-39.893333 39.893333-39.893334H238.933333v176.810667z m83.797334 16.298667c0.981333-5.248 1.536-10.709333 1.536-16.298667v-176.810667c0-4.906667-0.426667-9.685333-1.194667-14.336a170.666667 170.666667 0 0 0 25.642667-13.952L546.133333 122.026667V639.189333L353.322667 492.373333a170.666667 170.666667 0 0 0-30.592-18.602666zM704 256a42.666667 42.666667 0 0 0 0 85.333333c17.792 0 34.133333 18.176 34.133333 42.666667 0 24.490667-16.341333 42.666667-34.133333 42.666667a42.666667 42.666667 0 0 0 0 85.333333c67.029333 0 119.466667-58.24 119.466667-128s-52.437333-128-119.466667-128z m0-128a42.666667 42.666667 0 0 0 0 85.333333c81.408 0 149.333333 75.477333 149.333333 170.666667s-67.925333 170.666667-149.333333 170.666667a42.666667 42.666667 0 0 0 0 85.333333c130.645333 0 234.666667-115.541333 234.666667-256s-104.021333-256-234.666667-256z"  horiz-adv-x="1024" />

    
    <glyph glyph-name="ic_Starred1" unicode="&#58990;" d="M279.68-78.165333c-30.72-20.48-71.125333 5.034667-65.92 41.514666l39.68 277.546667-198.272 198.272a42.666667 42.666667 0 0 0 24.149333 72.405333l274.901334 39.253334 118.570666 276.650666c14.762667 34.474667 63.658667 34.474667 78.421334 0l118.570666-276.650666 274.901334-39.253334a42.666667 42.666667 0 0 0 24.149333-72.405333l-198.229333-198.272 39.637333-277.546667c5.205333-36.48-35.2-61.994667-65.92-41.514666L512 76.714667l-232.32-154.88z m32.042667 123.946666l176.64 117.76a42.666667 42.666667 0 0 0 47.317333 0l176.597333-117.76-29.184 204.202667a42.666667 42.666667 0 0 0 12.074667 36.181333l153.002667 153.002667-214.186667 30.592a42.666667 42.666667 0 0 0-33.194667 25.429333L512 702.336 423.253333 495.189333a42.666667 42.666667 0 0 0-33.237333-25.429333l-214.186667-30.592 153.002667-153.002667a42.666667 42.666667 0 0 0 12.074667-36.181333l-29.184-204.202667z"  horiz-adv-x="1024" />

    
    <glyph glyph-name="value1" unicode="&#58991;" d=""  horiz-adv-x="1024" />

    
    <glyph glyph-name="ic_Forward" unicode="&#58992;" d="M525.902769 539.372308L525.745231 699.076923c0 35.524923 43.323077 52.932923 67.859692 27.254154l301.331692-315.352615a39.384615 39.384615 0 0 0 0-54.429539l-300.780307-314.801231c-24.536615-25.678769-67.820308-8.310154-67.859693 27.175385l-0.157538 176.797538c-161.28-19.613538-271.438769-85.070769-334.336-196.135384-20.48-36.273231-75.933538-20.007385-73.570462 21.622154 15.044923 265.216 153.6 424.093538 407.63077 468.204307z m286.089846-155.648l-207.399384 217.00923 0.078769-95.192615a39.384615 39.384615 0 0 0-34.343385-39.108923c-186.840615-24.024615-301.843692-109.095385-349.420307-259.780923 84.440615 71.128615 198.892308 111.655385 341.858461 121.580308a39.384615 39.384615 0 0 0 42.102154-39.266462l0.118154-121.895385 207.005538 216.615385z"  horiz-adv-x="1024" />

    
    <glyph glyph-name="AddChannel_24px" unicode="&#58993;" d="M512 384m-512 0a512 512 0 1 1 1024 0 512 512 0 1 1-1024 0ZM512 384m-426.666667 0a426.666667 426.666667 0 1 1 853.333334 0 426.666667 426.666667 0 1 1-853.333334 0ZM720.938667 426.666667v-85.333334H300.842667v85.333334zM553.557333 341.333333v-170.666666c0-56.874667-85.333333-56.874667-85.333333 0v170.666666H300.842667c-56.874667 0-56.874667 85.333333 0 85.333334h167.381333V597.333333c0 56.874667 85.333333 56.874667 85.333333 0v-170.666666h167.381334c56.917333 0 56.917333-85.333333 0-85.333334h-167.381334z"  horiz-adv-x="1024" />

    
    <glyph glyph-name="ic_Information1" unicode="&#58994;" d="M512 810.666667c235.648 0 426.666667-191.018667 426.666667-426.666667s-191.018667-426.666667-426.666667-426.666667S85.333333 148.352 85.333333 384 276.352 810.666667 512 810.666667z m0-85.333334a341.333333 341.333333 0 1 1 0-682.666666 341.333333 341.333333 0 0 1 0 682.666666z m0-469.333333a42.666667 42.666667 0 1 0 0-85.333333 42.666667 42.666667 0 0 0 0 85.333333z m0 341.333333a42.666667 42.666667 0 0 0 42.666667-42.666666v-213.333334a42.666667 42.666667 0 0 0-85.333334 0V554.666667a42.666667 42.666667 0 0 0 42.666667 42.666666z"  horiz-adv-x="1024" />

    
    <glyph glyph-name="ic_Down1" unicode="&#58995;" d="M185.258667 416.128a42.666667 42.666667 0 0 1-4.053334-60.202667l298.24-341.333333A42.410667 42.410667 0 0 1 512 0a42.624 42.624 0 0 1 34.944 18.176l295.808 337.706667a42.666667 42.666667 0 1 1-64.170667 56.234666L554.666667 156.629333V725.333333a42.666667 42.666667 0 0 1-37.674667 42.368L512 768a42.666667 42.666667 0 0 1-42.666667-42.666667v-569.472l-223.872 256.213334a42.666667 42.666667 0 0 1-55.936 7.338666z"  horiz-adv-x="1024" />

    
    <glyph glyph-name="ic_Up1" unicode="&#58996;" d="M185.258667 351.872a42.666667 42.666667 0 0 0-4.053334 60.202667l298.24 341.333333A42.410667 42.410667 0 0 0 512 768c14.464 0 27.221333-7.168 34.944-18.176l295.808-337.706667a42.666667 42.666667 0 1 0-64.170667-56.234666L554.666667 611.370667V42.666667a42.666667 42.666667 0 0 0-37.674667-42.368L512 0a42.666667 42.666667 0 0 0-42.666667 42.666667V612.138667l-223.872-256.213334a42.666667 42.666667 0 0 0-55.936-7.338666z"  horiz-adv-x="1024" />

    
    <glyph glyph-name="ic_Video1" unicode="&#58997;" d="M243.2 768h537.6C867.84 768 938.666667 698.069333 938.666667 611.541333v-455.082666C938.666667 69.930667 867.84 0 780.8 0H243.2C156.16 0 85.333333 69.930667 85.333333 156.458667V611.541333C85.333333 698.069333 156.16 768 243.2 768z m0-85.333333C203.008 682.666667 170.666667 650.709333 170.666667 611.541333v-455.082666C170.666667 117.290667 203.008 85.333333 243.2 85.333333h537.6c40.192 0 72.533333 31.957333 72.533333 71.125334V611.541333C853.333333 650.709333 820.992 682.666667 780.8 682.666667H243.2z m235.178667-498.944c-29.568-24.448-70.741333-13.098667-87.296 19.712A67.328 67.328 0 0 0 384 233.685333V534.314667C384 567.125333 407.552 597.333333 442.538667 597.333333c13.226667 0 25.770667-4.736 35.84-13.056l181.546666-150.314666c23.296-19.242667 29.013333-53.589333 15.658667-80.213334-3.84-7.552-9.088-14.293333-15.658667-19.712l-181.546666-150.314666zM469.333333 480.981333v-193.962666L586.496 384 469.333333 480.981333z"  horiz-adv-x="1024" />

    
    <glyph glyph-name="ic_Calendar" unicode="&#58998;" d="M362.453333 648.533333a42.666667 42.666667 0 0 0-84.906666 0H170.666667v-68.266666h682.666666V648.533333h-68.48a42.666667 42.666667 0 0 0-84.906666 0h-337.493334z m0 0h337.493334-337.493334zM277.333333 733.866667V768a42.666667 42.666667 0 1 0 85.333334 0v-34.133333h337.066666V768a42.666667 42.666667 0 0 0 85.333334 0v-34.133333h72.533333c44.8 0 81.066667-36.266667 81.066667-81.066667V85.333333a128 128 0 0 0-128-128H213.333333a128 128 0 0 0-128 128V652.8c0 44.8 36.266667 81.066667 81.066667 81.066667h110.933333zM853.333333 494.933333H170.666667V85.333333a42.666667 42.666667 0 0 1 42.666666-42.666666h597.333334a42.666667 42.666667 0 0 1 42.666666 42.666666V494.933333zM281.6 341.333333a42.666667 42.666667 0 0 0 0 85.333334h153.6a42.666667 42.666667 0 0 0 0-85.333334H281.6z m0-153.6a42.666667 42.666667 0 0 0 0 85.333334h307.2a42.666667 42.666667 0 0 0 0-85.333334H281.6z"  horiz-adv-x="1024" />

    
    <glyph glyph-name="ic_Goal1" unicode="&#58999;" d="M841.685333 654.848A424.917333 424.917333 0 0 0 938.666667 384c0-235.648-191.018667-426.666667-426.666667-426.666667S85.333333 148.352 85.333333 384 276.352 810.666667 512 810.666667c102.058667 0 195.797333-35.84 269.226667-95.616l23.466666 23.466666 11.178667 59.52a42.666667 42.666667 0 1 0 83.882667-15.786666l-2.432-12.928 12.970666 2.432a42.666667 42.666667 0 1 0 15.744-83.882667l-63.146666-11.861333-21.205334-21.162667z m-121.173333-0.554667a341.333333 341.333333 0 1 1 60.544-60.16l-61.013333-60.928a256 256 0 1 0-60.586667 60.074667l61.013333 61.013333zM597.76 531.584a170.666667 170.666667 0 1 1 60.714667-59.946667l-64.341334-64.384A85.376 85.376 0 0 0 512 298.666667a85.333333 85.333333 0 1 0 20.906667 168.106666l64.853333 64.810667z"  horiz-adv-x="1024" />

    
    <glyph glyph-name="ic_Write_message" unicode="&#59000;" d="M808.832 558.634667a42.538667 42.538667 0 0 0 85.12 0v-423.082667A178.218667 178.218667 0 0 0 715.733333-42.666667H263.552A178.218667 178.218667 0 0 0 85.333333 135.552V587.733333a178.218667 178.218667 0 0 0 178.218667 178.218667h409.6a42.538667 42.538667 0 1 0 0-85.12h-409.6a93.098667 93.098667 0 0 1-93.098667-93.098667v-452.181333c0-51.413333 41.685333-93.098667 93.098667-93.098667h452.181333a93.098667 93.098667 0 0 1 93.098667 93.098667V558.634667z m37.546667 238.805333a42.538667 42.538667 0 1 0 61.653333-58.666667l-407.466667-427.946666a42.538667 42.538667 0 1 0-61.653333 58.709333l407.466667 427.946667z"  horiz-adv-x="1024" />

    
    <glyph glyph-name="ic_archive" unicode="&#59001;" d="M469.333333 725.333333H256a85.333333 85.333333 0 0 1-85.333333-85.333333v-512a85.333333 85.333333 0 0 1 85.333333-85.333333h512a85.333333 85.333333 0 0 1 85.333333 85.333333V640a85.333333 85.333333 0 0 1-68.266666 83.626667V384a42.666667 42.666667 0 0 0-59.690667-39.125333l-97.28 42.325333-99.328-42.453333A42.666667 42.666667 0 0 0 469.333333 384V725.333333zM256 810.666667h512a170.666667 170.666667 0 0 0 170.666667-170.666667v-512a170.666667 170.666667 0 0 0-170.666667-170.666667H256a170.666667 170.666667 0 0 0-170.666667 170.666667V640a170.666667 170.666667 0 0 0 170.666667 170.666667z m217.6-576a42.666667 42.666667 0 0 0 0-85.333334H281.6a42.666667 42.666667 0 0 0 0 85.333334h192z m-115.2 153.6a42.666667 42.666667 0 0 0 0-85.333334H281.6a42.666667 42.666667 0 0 0 0 85.333334h76.8zM554.666667 725.333333v-276.693333l56.746666 24.277333a42.666667 42.666667 0 0 0 33.834667-0.128l54.485333-23.68V725.333333H554.666667z"  horiz-adv-x="1024" />

    
    <glyph glyph-name="ic_Someonesactivity" unicode="&#59002;" d="M327.125333 530.944a194.389333 194.389333 0 1 0 302.293334-161.621333 308.266667 308.266667 0 0 0 200.192-288.725334V0H213.333333v80.597333a308.266667 308.266667 0 0 0 200.192 288.725334 194.176 194.176 0 0 0-86.4 161.621333z m194.346667-109.013333a109.056 109.056 0 1 1 0 218.069333 109.056 109.056 0 0 1 0-218.069333z m0-118.528A222.805333 222.805333 0 0 1 298.752 85.333333h445.482667a222.805333 222.805333 0 0 1-222.72 218.069334z"  horiz-adv-x="1024" />

    
    <glyph glyph-name="ic_Deals1" unicode="&#59003;" d="M896 554.666667H128v-128a42.666667 42.666667 0 0 1 42.666667-42.666667h682.666666a42.666667 42.666667 0 0 1 42.666667 42.666667V554.666667zM298.666667 640a128 128 0 0 0 128 128h170.666666a128 128 0 0 0 128-128h170.666667a85.333333 85.333333 0 0 0 85.333333-85.333333v-426.666667a170.666667 170.666667 0 0 0-170.666666-170.666667H213.333333a170.666667 170.666667 0 0 0-170.666666 170.666667V554.666667a85.333333 85.333333 0 0 0 85.333333 85.333333h170.666667z m85.333333 0h256a42.666667 42.666667 0 0 1-42.666667 42.666667h-170.666666a42.666667 42.666667 0 0 1-42.666667-42.666667z m0-341.333333H170.666667c-14.933333 0-29.312 2.56-42.666667 7.253333V128a85.333333 85.333333 0 0 1 85.333333-85.333333h597.333334a85.333333 85.333333 0 0 1 85.333333 85.333333v177.92c-13.354667-4.693333-27.733333-7.253333-42.666667-7.253333h-213.333333v-68.266667a59.733333 59.733333 0 0 0-59.733333-59.733333h-136.533334A59.733333 59.733333 0 0 0 384 230.4V298.666667z m85.333333-42.666667h85.333334v42.666667h-85.333334v-42.666667z"  horiz-adv-x="1024" />

    
    <glyph glyph-name="ic_Close_Circle" unicode="&#59004;" d="M512 853.333333c259.2 0 469.333333-210.133333 469.333333-469.333333s-210.133333-469.333333-469.333333-469.333333S42.666667 124.8 42.666667 384 252.8 853.333333 512 853.333333z m0-85.333333a384 384 0 1 1 0-768 384 384 0 0 1 0 768z m-67.669333-376.661333l-90.496 90.453333a42.666667 42.666667 0 0 0 60.330666 60.373333l90.496-90.496 90.538667 90.496a42.666667 42.666667 0 1 0 60.330667-60.330666l-90.496-90.496 90.496-90.538667a42.666667 42.666667 0 1 0-60.330667-60.330667l-90.538667 90.496-90.453333-90.496a42.666667 42.666667 0 0 0-60.373333 60.330667l90.496 90.538667z"  horiz-adv-x="1024" />

    
    <glyph glyph-name="ic_To-dosaddedcompleted" unicode="&#59005;" d="M399.36 414.72l75.221333-74.24 146.346667 177.322667a42.666667 42.666667 0 1 0 65.834667-54.272l-176.042667-213.333334a42.666667 42.666667 0 0 0-62.890667-3.242666l-108.373333 107.050666A42.666667 42.666667 0 1 0 399.36 414.72z m-29.568 367.488h284.416a256 256 0 0 0 256-256v-284.416a256 256 0 0 0-256-256H369.792a256 256 0 0 0-256 256V526.208a256 256 0 0 0 256 256z m0-85.333333a170.666667 170.666667 0 0 1-170.666667-170.666667v-284.416a170.666667 170.666667 0 0 1 170.666667-170.666667h284.416a170.666667 170.666667 0 0 1 170.666667 170.666667V526.208a170.666667 170.666667 0 0 1-170.666667 170.666667H369.792z"  horiz-adv-x="1024" />

    
    <glyph glyph-name="ic_LatestActivity" unicode="&#59006;" d="M512 768a384 384 0 1 0 0-768 384 384 0 0 0 0 768z m-42.709333-88.362667A298.752 298.752 0 0 1 512 85.333333a298.752 298.752 0 0 1 295.338667 253.952L512 339.370667a42.666667 42.666667 0 0 0-42.666667 42.666666z m85.376 0v-254.933333l253.269333-0.042667A298.837333 298.837333 0 0 1 554.666667 679.637333z"  horiz-adv-x="1024" />

    
    <glyph glyph-name="ic_Reply1" unicode="&#59007;" d="M498.097231 539.372308c254.070154-44.110769 392.625231-202.988308 407.670154-468.204308 2.363077-41.629538-53.051077-57.895385-73.609847-21.661538-62.857846 111.143385-173.016615 176.561231-334.296615 196.135384L497.703385 68.923077c0-35.485538-43.323077-52.854154-67.859693-27.175385l-300.780307 314.801231a39.384615 39.384615 0 0 0 0 54.429539l301.292307 315.352615c24.576 25.678769 67.899077 8.270769 67.899077-27.254154l-0.157538-159.665231z m-286.089846-155.648l207.005538-216.65477 0.118154 121.895385a39.384615 39.384615 0 0 0 42.141538 39.266462c142.926769-9.924923 257.378462-50.412308 341.819077-121.580308-47.576615 150.724923-162.579692 235.795692-349.420307 259.780923a39.384615 39.384615 0 0 0-34.38277 39.108923l0.118154 95.232-207.399384-217.048615z"  horiz-adv-x="1024" />

    
    <glyph glyph-name="ic_Overdueto-dos" unicode="&#59008;" d="M548.266667 656.341333l4.352-16.213333a244.906667 244.906667 0 0 0 183.466666-175.786667l41.557334-155.221333 78.677333-88.064a42.666667 42.666667 0 0 0-20.778667-69.632l-161.28-43.264a107.690667 107.690667 0 0 0-190.464-50.986667l-150.613333-40.362666a42.666667 42.666667 0 0 0-52.821333 49.92l24.106666 115.626666-41.6 155.178667a244.992 244.992 0 0 0 80.213334 252.032l-2.858667 11.008a107.690667 107.690667 0 0 0 208 55.765333zM458.112 555.093333a159.573333 159.573333 0 0 1-112.853333-195.498666l44.202666-165.034667a42.666667 42.666667 0 0 0 0.554667-19.754667l-12.032-57.685333 368.469333 98.730667-39.253333 43.946666a42.666667 42.666667 0 0 0-9.386667 17.408l-44.245333 164.992a159.573333 159.573333 0 0 1-195.456 112.896z m-19.712 94.890667a22.357333 22.357333 0 0 1-16-16.554667 249.472 249.472 0 0 0 38.741333 9.429334 22.186667 22.186667 0 0 1-22.741333 7.125333z"  horiz-adv-x="1024" />

    
    <glyph glyph-name="ic_Description1" unicode="&#59009;" d="M597.333333 128a42.666667 42.666667 0 0 0 0-85.333333H170.666667a42.666667 42.666667 0 0 0 0 85.333333z m256 213.333333a42.666667 42.666667 0 0 0 0-85.333333H170.666667a42.666667 42.666667 0 0 0 0 85.333333z m0 213.333334a42.666667 42.666667 0 0 0 0-85.333334H170.666667a42.666667 42.666667 0 1 0 0 85.333334z m0 213.333333a42.666667 42.666667 0 0 0 0-85.333333H170.666667a42.666667 42.666667 0 1 0 0 85.333333z"  horiz-adv-x="1024" />

    
    <glyph glyph-name="ic_TaskList" unicode="&#59010;" d="M522.965333 321.109333l339.541334 430.634667a42.666667 42.666667 0 0 0 66.986666-52.821333l-370.005333-469.333334a42.666667 42.666667 0 0 0-64.426667-2.986666l-184.661333 194.346666a42.666667 42.666667 0 1 0 61.866667 58.752l150.698666-158.592zM853.333333 422.4a42.666667 42.666667 0 0 0 85.333334 0v-307.2a157.866667 157.866667 0 0 0-157.866667-157.866667H243.2A157.866667 157.866667 0 0 0 85.333333 115.2V652.8A157.866667 157.866667 0 0 0 243.2 810.666667h456.533333a42.666667 42.666667 0 0 0 0-85.333334H243.2A72.533333 72.533333 0 0 1 170.666667 652.8v-537.6A72.533333 72.533333 0 0 1 243.2 42.666667h537.6a72.533333 72.533333 0 0 1 72.533333 72.533333v307.2z"  horiz-adv-x="1024" />

    
    <glyph glyph-name="ic_Dropbox" unicode="&#59011;" d="M336.128 163.029333L85.333333 326.314667l173.013334 138.666666 252.842666-156.074666-175.061333-145.877334z m175.061333 145.92l252.842667 156.074667 172.970667-138.666667-250.282667-163.328-175.530667 145.92z m1.024-31.786666l175.530667-145.365334 75.264 49.152v-55.253333l-250.794667-149.973333v-0.512l-0.512 0.512-0.512-0.512v0.512l-250.282666 149.973333V180.906667l75.221333-49.152 175.061333 145.365333v1.066667l0.512-0.554667 0.512 0.554667v-1.066667zM85.333333 603.221333l250.794667 163.285334 175.061333-145.92L258.346667 465.066667 85.333333 603.221333z m601.386667 163.285334l250.282667-163.285334-172.970667-138.24-252.842667 155.648 175.530667 145.877334z"  horiz-adv-x="1024" />

    
    <glyph glyph-name="ic_Delivery1" unicode="&#59012;" d="M469.333333 0a42.666667 42.666667 0 0 0 0 85.333333h256c69.973333 0 128 62.122667 128 140.202667V499.797333C853.333333 577.877333 795.306667 640 725.333333 640H341.333333a42.666667 42.666667 0 1 0 0 85.333333h384c118.485333 0 213.333333-101.589333 213.333334-225.536v-274.261333C938.666667 101.546667 843.818667 0 725.333333 0z m256 298.666667a42.666667 42.666667 0 0 0 0-85.333334H256a42.666667 42.666667 0 0 0 0 85.333334z m0 213.333333a42.666667 42.666667 0 0 0 0-85.333333H128a42.666667 42.666667 0 0 0 0 85.333333z"  horiz-adv-x="1024" />

    
    <glyph glyph-name="ic_Closs1" unicode="&#59013;" d="M225.962667 670.165333a42.666667 42.666667 0 0 0 60.373333 0l225.536-225.792 225.152 224.768a42.666667 42.666667 0 0 0 56.32 3.498667l4.010667-3.541333a42.666667 42.666667 0 0 0 0-60.373334L572.16 384l225.194667-225.365333a42.666667 42.666667 0 0 0 3.498666-56.32l-3.541333-4.010667a42.666667 42.666667 0 0 0-60.330667 0l-225.194666 225.408-225.706667-225.365333a42.666667 42.666667 0 0 0-56.32-3.541334l-4.010667 3.584a42.666667 42.666667 0 0 0 0.042667 60.330667l225.664 225.365333-225.536 225.749334a42.666667 42.666667 0 0 0-3.541333 56.32z"  horiz-adv-x="1024" />

    
    <glyph glyph-name="ic_BurgerMenu1" unicode="&#59014;" d="M810.666667 256a42.666667 42.666667 0 0 0 0-85.333333H213.333333a42.666667 42.666667 0 0 0 0 85.333333z m0 341.333333a42.666667 42.666667 0 0 0 0-85.333333H213.333333a42.666667 42.666667 0 1 0 0 85.333333z"  horiz-adv-x="1024" />

    
    <glyph glyph-name="ic_Refund1" unicode="&#59015;" d="M249.6 106.666667l97.066667-77.653334a42.666667 42.666667 0 1 0-53.333334-66.645333l-192 153.6A42.453333 42.453333 0 0 0 85.333333 148.565333V149.333333a42.368 42.368 0 0 0 17.066667 34.133334l190.933333 152.746666a42.666667 42.666667 0 1 0 53.333334-66.56L249.6 192h358.357333a245.333333 245.333333 0 0 1 0 490.666667H320a42.666667 42.666667 0 1 0 0 85.333333h288a330.666667 330.666667 0 0 0 0-661.333333h-358.4z"  horiz-adv-x="1024" />

    
    <glyph glyph-name="ic_Gantt1" unicode="&#59016;" d="M810.666667 128a42.666667 42.666667 0 0 0 0-85.333333H384a42.666667 42.666667 0 0 0 0 85.333333z m-128 298.666667a42.666667 42.666667 0 0 0 0-85.333334H213.333333a42.666667 42.666667 0 0 0 0 85.333334z m42.666666 298.666666a42.666667 42.666667 0 0 0 0-85.333333h-298.666666a42.666667 42.666667 0 1 0 0 85.333333z"  horiz-adv-x="1024" />

    
    <glyph glyph-name="ic_Block1" unicode="&#59017;" d="M795.52 193.877333A341.333333 341.333333 0 0 1 321.706667 667.434667l473.813333-473.6z m-56.192-64.512L257.28 611.2a341.333333 341.333333 0 0 1 482.048-481.834667zM512 810.666667c235.648 0 426.666667-191.018667 426.666667-426.666667s-191.018667-426.666667-426.666667-426.666667S85.333333 148.352 85.333333 384 276.352 810.666667 512 810.666667z"  horiz-adv-x="1024" />

    
    <glyph glyph-name="ic_Email1" unicode="&#59018;" d="M853.333333 725.333333a128 128 0 0 0 128-128v-469.333333a128 128 0 0 0-128-128H170.666667a128 128 0 0 0-128 128V597.333333a128 128 0 0 0 128 128h682.666666z m42.666667-228.736l-310.613333-217.472a128 128 0 0 0-146.773334 0L128 496.554667V128a42.666667 42.666667 0 0 1 42.666667-42.666667h682.666666a42.666667 42.666667 0 0 1 42.666667 42.666667V496.597333zM853.333333 640H170.666667a42.666667 42.666667 0 0 1-42.538667-39.424l359.424-251.52a42.666667 42.666667 0 0 1 48.896 0l359.338667 251.562667-0.085334 1.706666A42.666667 42.666667 0 0 1 853.333333 640z"  horiz-adv-x="1024" />

    
    <glyph glyph-name="ic_Check1" unicode="&#59019;" d="M243.370667 470.528a42.666667 42.666667 0 0 1-60.074667-60.629333l248.576-246.101334a42.666667 42.666667 0 0 1 62.293333 2.432l348.757334 403.2a42.666667 42.666667 0 0 1-64.512 55.808l-318.933334-368.64-216.106666 213.930667z"  horiz-adv-x="1024" />

    
    <glyph glyph-name="ic_Kanban1" unicode="&#59020;" d="M768 682.666667a42.666667 42.666667 0 0 0 85.333333 0v-298.666667a42.666667 42.666667 0 0 0-85.333333 0z m-298.666667 0a42.666667 42.666667 0 0 0 85.333334 0v-597.333334a42.666667 42.666667 0 0 0-85.333334 0zM170.666667 682.666667a42.666667 42.666667 0 0 0 85.333333 0v-426.666667a42.666667 42.666667 0 1 0-85.333333 0z"  horiz-adv-x="1024" />

    
    <glyph glyph-name="ic_Library1" unicode="&#59021;" d="M853.333333 213.333333V725.333333H341.333333v-512h512z m0-85.333333H213.333333a42.666667 42.666667 0 0 1 0-85.333333h640v85.333333z m85.333334-85.333333a85.333333 85.333333 0 0 0-85.333334-85.333334H213.333333a128 128 0 0 0-128 128V725.333333a85.333333 85.333333 0 0 0 85.333334 85.333334h682.666666a85.333333 85.333333 0 0 0 85.333334-85.333334v-682.666666zM170.666667 206.08c13.354667 4.693333 27.733333 7.253333 42.666666 7.253333h42.666667V725.333333H170.666667v-519.253333z m319.445333 241.408a42.666667 42.666667 0 0 0 0 85.333333h128a42.666667 42.666667 0 1 0 0-85.333333h-128z m0-128a42.666667 42.666667 0 0 0 0 85.333333h213.333333a42.666667 42.666667 0 1 0 0-85.333333h-213.333333z"  horiz-adv-x="1024" />

    
    <glyph glyph-name="ic_GoogleDrive" unicode="&#59022;" d="M938.666667 223.786667l-7.04-12.544-115.541334-207.061334-2.346666-4.181333H255.786667l6.997333 12.501333 115.626667 207.061334 2.304 4.224H938.666667zM364.373333 741.973333l6.997334-12.416 117.333333-206.08 2.304-4.181333-2.346667-4.181333L219.093333 36.693333l-7.082666-12.416-6.997334 12.373334-117.290666 206.122666L85.333333 246.954667l2.389334 4.224L357.333333 729.557333l6.997334 12.416zM659.669333 768l2.346667-4.224 269.568-478.293333 7.04-12.501334-14.08-0.085333-232.789333-1.024h-4.693334l-2.389333 4.266667L415.104 754.432l-6.954667 12.458667 14.08 0.085333L655.018667 768h4.650666z"  horiz-adv-x="1024" />

    
    <glyph glyph-name="ic_Support1" unicode="&#59023;" d="M170.666667 783.744c29.056 30.592 76.032 38.528 105.6 7.381333l154.026666-162.133333c23.978667-25.216 18.901333-43.818667-18.517333-143.872-9.984-22.442667-8.576-41.344-0.853333-49.493333l133.973333-141.013334c6.741333-7.082667 21.973333-8.362667 44.16 2.474667 96.170667 39.765333 113.706667 45.098667 139.52 17.92l154.026667-162.090667c28.032-29.525333 21.077333-75.264-7.04-104.832-114.944-121.002667-302.250667-121.002667-417.237334 0L170.666667 350.890667C56.874667 470.656 56.874667 663.978667 170.666667 783.786667z m56.405333-64.725333c-76.970667-87.253333-75.178667-224.469333 5.461333-309.333334l287.658667-302.848c80.469333-84.693333 209.493333-85.546667 290.986667-2.645333l-129.792 136.618667c-13.781333-4.266667-33.706667-11.818667-57.173334-21.418667-50.645333-24.96-106.24-20.352-141.226666 16.469333l-133.973334 141.013334c-34.005333 35.84-38.144 91.392-16.213333 140.501333a840.234667 840.234667 0 0 1 22.528 66.645333zM550.4 580.266667a119.466667 119.466667 0 0 0 119.466667-119.466667 42.666667 42.666667 0 0 0-85.333334 0 34.133333 34.133333 0 0 1-34.133333 34.133333 42.666667 42.666667 0 0 0 0 85.333334z m0 115.2a234.666667 234.666667 0 0 0 234.666667-234.666667 42.666667 42.666667 0 0 0-85.333334 0 149.333333 149.333333 0 0 1-149.333333 149.333333 42.666667 42.666667 0 0 0 0 85.333334z m0 115.2a349.866667 349.866667 0 0 0 349.866667-349.866667 42.666667 42.666667 0 0 0-85.333334 0A264.533333 264.533333 0 0 1 550.4 725.333333a42.666667 42.666667 0 0 0 0 85.333334z"  horiz-adv-x="1024" />

    
    <glyph glyph-name="ic_Someonesassignments" unicode="&#59024;" d="M648.533333 725.333333V768a42.666667 42.666667 0 0 0 85.333334 0v-42.88A170.666667 170.666667 0 0 0 896 554.666667v-384a170.666667 170.666667 0 0 0-170.666667-170.666667H298.666667a170.666667 170.666667 0 0 0-170.666667 170.666667V554.666667a170.666667 170.666667 0 0 0 170.666667 170.666666h8.533333V768a42.666667 42.666667 0 1 0 85.333333 0v-42.666667h85.333334V768a42.666667 42.666667 0 0 0 85.333333 0v-42.666667h85.333333z m0-85.333333h-85.333333a42.666667 42.666667 0 0 0-85.333333 0h-85.333334a42.666667 42.666667 0 1 0-85.333333 0H298.666667a85.333333 85.333333 0 0 1-85.333334-85.333333v-384a85.333333 85.333333 0 0 1 85.333334-85.333334h426.666666a85.333333 85.333333 0 0 1 85.333334 85.333334V554.666667a85.333333 85.333333 0 0 1-76.8 84.906666 42.666667 42.666667 0 0 0-85.333334 0.426667zM384 384a42.666667 42.666667 0 0 0 0 85.333333h298.666667a42.666667 42.666667 0 0 0 0-85.333333H384z m0-170.666667a42.666667 42.666667 0 0 0 0 85.333334h213.333333a42.666667 42.666667 0 0 0 0-85.333334H384z"  horiz-adv-x="1024" />

    
    <glyph glyph-name="ic_Administration1" unicode="&#59025;" d="M938.666667 682.666667v-605.098667A119.893333 119.893333 0 0 0 819.2-42.666667H204.8A119.893333 119.893333 0 0 0 85.333333 77.568V682.666667a128 128 0 0 0 128 128h597.333334a128 128 0 0 0 128-128z m-85.333334-547.413334c-13.354667-4.693333-27.733333-7.253333-42.666666-7.253333H213.333333c-14.933333 0-29.312 2.56-42.666666 7.253333v-57.685333c0-19.370667 15.36-34.901333 34.133333-34.901333h614.4c18.773333 0 34.133333 15.530667 34.133333 34.901333v57.728zM853.333333 256V682.666667a42.666667 42.666667 0 0 1-42.666666 42.666666H213.333333a42.666667 42.666667 0 0 1-42.666666-42.666666v-426.666667a42.666667 42.666667 0 0 1 42.666666-42.666667h597.333334a42.666667 42.666667 0 0 1 42.666666 42.666667z m-298.666666 384h40.661333a42.666667 42.666667 0 0 0 42.666667-42.666667v-19.370666A42.666667 42.666667 0 0 0 559.573333 554.666667h-89.642666v-42.666667H554.666667a85.333333 85.333333 0 0 0 85.333333-85.333333v-42.666667a85.333333 85.333333 0 0 0-85.333333-85.333333 42.666667 42.666667 0 0 0-85.333334 0h-42.666666a42.666667 42.666667 0 0 0-42.666667 43.733333l0.597333 23.466667A42.666667 42.666667 0 0 0 465.365333 384H554.666667v42.666667h-84.736a85.333333 85.333333 0 0 0-85.333334 85.333333V554.666667A85.333333 85.333333 0 0 0 469.333333 640a42.666667 42.666667 0 1 0 85.333334 0z"  horiz-adv-x="1024" />

    
    <glyph glyph-name="ic_Spreadsheets1" unicode="&#59026;" d="M354.133333 311.466667v145.066666H170.666667v-145.066666h183.466666z m85.333334 0H853.333333v145.066666h-413.866666v-145.066666zM354.133333 725.333333H213.333333a42.666667 42.666667 0 0 1-42.666666-42.666666v-140.8h183.466666V725.333333z m85.333334 0v-183.466666H853.333333V682.666667a42.666667 42.666667 0 0 1-42.666666 42.666666h-371.2z m-85.333334-682.666666v183.466666H170.666667V85.333333a42.666667 42.666667 0 0 1 42.666666-42.666666h140.8z m85.333334 0H810.666667a42.666667 42.666667 0 0 1 42.666666 42.666666v140.8h-413.866666V42.666667zM85.333333 85.333333V682.666667a128 128 0 0 0 128 128h597.333334a128 128 0 0 0 128-128v-597.333334a128 128 0 0 0-128-128H213.333333a128 128 0 0 0-128 128z"  horiz-adv-x="1024" />

    
    <glyph glyph-name="ic_Sales1" unicode="&#59027;" d="M814.933333 456.533333h-16.554666c-31.146667 0-59.861333 11.050667-81.834667 29.44-21.973333-18.389333-50.645333-29.44-81.834667-29.44h-40.874666c-31.189333 0-59.861333 11.050667-81.834667 29.44-21.973333-18.389333-50.645333-29.44-81.834667-29.44h-40.917333c-31.146667 0-59.861333 11.050667-81.834667 29.44-21.930667-18.389333-50.645333-29.44-81.792-29.44H209.066667V42.666667H384v256a42.666667 42.666667 0 0 0 42.666667 42.666666h192a42.666667 42.666667 0 0 0 42.666666-42.666666v-256h153.6v413.866666z m85.333334 30.634667V38.4a81.066667 81.066667 0 0 0-81.066667-81.066667H204.8a81.066667 81.066667 0 0 0-81.066667 81.066667V487.168a112.512 112.512 0 0 0-38.4 84.48 110.933333 110.933333 0 0 0 4.821334 32.298667l44.501333 146.218666A85.333333 85.333333 0 0 0 216.32 810.666667h591.36a85.333333 85.333333 0 0 0 81.621333-60.501334l44.544-146.218666c13.226667-43.648-1.493333-88.192-33.578666-116.778667zM576 42.666667v213.333333H469.333333v-213.333333h106.666667z m276.181333 536.405333L807.68 725.333333H216.32L171.776 579.072A25.6 25.6 0 0 1 170.666667 571.605333c0-15.786667 14.848-29.738667 34.474666-29.738666h20.48c22.186667 0 39.125333 15.914667 39.125334 34.133333 0 56.874667 85.333333 56.874667 85.333333 0 0-18.218667 16.981333-34.133333 39.168-34.133333h40.917333c22.186667 0 39.168 15.914667 39.168 34.133333 0 56.874667 85.333333 56.874667 85.333334 0 0-18.218667 16.938667-34.133333 39.168-34.133333h40.874666c22.186667 0 39.168 15.914667 39.168 34.133333 0 56.874667 85.333333 56.874667 85.333334 0 0-18.218667 16.938667-34.133333 39.168-34.133333h20.48c3.413333 0 6.826667 0.426667 10.112 1.322666 18.176 4.864 27.733333 21.034667 23.210666 35.882667z"  horiz-adv-x="1024" />

    
    <glyph glyph-name="ic_Closs" unicode="&#58926;" d="M225.962667 670.165333a42.666667 42.666667 0 0 0 60.373333 0l225.536-225.792 225.152 224.768a42.666667 42.666667 0 0 0 56.32 3.498667l4.010667-3.541333a42.666667 42.666667 0 0 0 0-60.373334L572.16 384l225.194667-225.365333a42.666667 42.666667 0 0 0 3.498666-56.32l-3.541333-4.010667a42.666667 42.666667 0 0 0-60.330667 0l-225.194666 225.408-225.706667-225.365333a42.666667 42.666667 0 0 0-56.32-3.541334l-4.010667 3.584a42.666667 42.666667 0 0 0 0.042667 60.330667l225.664 225.365333-225.536 225.749334a42.666667 42.666667 0 0 0-3.541333 56.32z"  horiz-adv-x="1024" />

    
    <glyph glyph-name="ic_Kanban" unicode="&#58927;" d="M768 682.666667a42.666667 42.666667 0 0 0 85.333333 0v-298.666667a42.666667 42.666667 0 0 0-85.333333 0z m-298.666667 0a42.666667 42.666667 0 0 0 85.333334 0v-597.333334a42.666667 42.666667 0 0 0-85.333334 0zM170.666667 682.666667a42.666667 42.666667 0 0 0 85.333333 0v-426.666667a42.666667 42.666667 0 1 0-85.333333 0z"  horiz-adv-x="1024" />

    
    <glyph glyph-name="ic_List" unicode="&#58928;" d="M810.666667 128a42.666667 42.666667 0 0 0 0-85.333333H213.333333a42.666667 42.666667 0 0 0 0 85.333333z m0 298.666667a42.666667 42.666667 0 0 0 0-85.333334H213.333333a42.666667 42.666667 0 0 0 0 85.333334z m0 298.666666a42.666667 42.666667 0 0 0 0-85.333333H213.333333a42.666667 42.666667 0 1 0 0 85.333333z"  horiz-adv-x="1024" />

    
    <glyph glyph-name="ic_Filter" unicode="&#58929;" d="M640 345.045333V128a42.666667 42.666667 0 0 0-23.594667-38.144l-170.666666-85.333333A42.666667 42.666667 0 0 0 384 42.666667v302.378666l-289.024 353.28A42.666667 42.666667 0 0 0 128 768h768a42.666667 42.666667 0 0 0 33.024-69.674667L640 345.045333z m-85.333333-190.677333v205.909333a42.666667 42.666667 0 0 0 9.642666 27.050667L805.973333 682.666667H218.026667l241.664-295.338667a42.666667 42.666667 0 0 0 9.642666-27.050667v-248.576l85.333334 42.666667z"  horiz-adv-x="1024" />

    
    <glyph glyph-name="ic_inbox" unicode="&#58930;" d="M810.666667 256V640a85.333333 85.333333 0 0 1-85.333334 85.333333H298.666667a85.333333 85.333333 0 0 1-85.333334-85.333333v-384h171.989334a42.666667 42.666667 0 0 0 42.666666-43.349333l-0.64-42.026667 170.410667-0.085333 0.512 43.264a42.666667 42.666667 0 0 0 42.666667 42.197333H810.666667z m85.333333 0a42.666667 42.666667 0 0 0 41.813333-51.029333l-22.058666-110.421334A170.666667 170.666667 0 0 0 748.373333-42.666667H275.584a170.666667 170.666667 0 0 0-167.338667 137.216l-22.101333 110.421334A42.666667 42.666667 0 0 0 128 256V640a170.666667 170.666667 0 0 0 170.666667 170.666667h426.666666a170.666667 170.666667 0 0 0 170.666667-170.666667v-384zM180.053333 170.666667l11.861334-59.392A85.333333 85.333333 0 0 1 275.626667 42.666667h472.832a85.333333 85.333333 0 0 1 83.626666 68.608l11.946667 59.392h-160.853333l-0.512-43.306667a42.666667 42.666667 0 0 0-42.666667-42.197333l-256 0.170666A42.666667 42.666667 0 0 0 341.333333 128.682667L342.016 170.666667H180.053333z"  horiz-adv-x="1024" />

    
    <glyph glyph-name="ic_Email" unicode="&#58931;" d="M853.333333 725.333333a128 128 0 0 0 128-128v-469.333333a128 128 0 0 0-128-128H170.666667a128 128 0 0 0-128 128V597.333333a128 128 0 0 0 128 128h682.666666z m42.666667-228.736l-310.613333-217.472a128 128 0 0 0-146.773334 0L128 496.554667V128a42.666667 42.666667 0 0 1 42.666667-42.666667h682.666666a42.666667 42.666667 0 0 1 42.666667 42.666667V496.597333zM853.333333 640H170.666667a42.666667 42.666667 0 0 1-42.538667-39.424l359.424-251.52a42.666667 42.666667 0 0 1 48.896 0l359.338667 251.562667-0.085334 1.706666A42.666667 42.666667 0 0 1 853.333333 640z"  horiz-adv-x="1024" />

    
    <glyph glyph-name="ic_BurgerMenu" unicode="&#58932;" d="M810.666667 256a42.666667 42.666667 0 0 0 0-85.333333H213.333333a42.666667 42.666667 0 0 0 0 85.333333z m0 341.333333a42.666667 42.666667 0 0 0 0-85.333333H213.333333a42.666667 42.666667 0 1 0 0 85.333333z"  horiz-adv-x="1024" />

    
    <glyph glyph-name="ic_Library" unicode="&#58933;" d="M853.333333 213.333333V725.333333H341.333333v-512h512z m0-85.333333H213.333333a42.666667 42.666667 0 0 1 0-85.333333h640v85.333333z m85.333334-85.333333a85.333333 85.333333 0 0 0-85.333334-85.333334H213.333333a128 128 0 0 0-128 128V725.333333a85.333333 85.333333 0 0 0 85.333334 85.333334h682.666666a85.333333 85.333333 0 0 0 85.333334-85.333334v-682.666666zM170.666667 206.08c13.354667 4.693333 27.733333 7.253333 42.666666 7.253333h42.666667V725.333333H170.666667v-519.253333z m319.445333 241.408a42.666667 42.666667 0 0 0 0 85.333333h128a42.666667 42.666667 0 1 0 0-85.333333h-128z m0-128a42.666667 42.666667 0 0 0 0 85.333333h213.333333a42.666667 42.666667 0 1 0 0-85.333333h-213.333333z"  horiz-adv-x="1024" />

    
    <glyph glyph-name="ic_Support" unicode="&#58934;" d="M170.666667 783.744c29.056 30.592 76.032 38.528 105.6 7.381333l154.026666-162.133333c23.978667-25.216 18.901333-43.818667-18.517333-143.872-9.984-22.442667-8.576-41.344-0.853333-49.493333l133.973333-141.013334c6.741333-7.082667 21.973333-8.362667 44.16 2.474667 96.170667 39.765333 113.706667 45.098667 139.52 17.92l154.026667-162.090667c28.032-29.525333 21.077333-75.264-7.04-104.832-114.944-121.002667-302.250667-121.002667-417.237334 0L170.666667 350.890667C56.874667 470.656 56.874667 663.978667 170.666667 783.786667z m56.405333-64.725333c-76.970667-87.253333-75.178667-224.469333 5.461333-309.333334l287.658667-302.848c80.469333-84.693333 209.493333-85.546667 290.986667-2.645333l-129.792 136.618667c-13.781333-4.266667-33.706667-11.818667-57.173334-21.418667-50.645333-24.96-106.24-20.352-141.226666 16.469333l-133.973334 141.013334c-34.005333 35.84-38.144 91.392-16.213333 140.501333a840.234667 840.234667 0 0 1 22.528 66.645333zM550.4 580.266667a119.466667 119.466667 0 0 0 119.466667-119.466667 42.666667 42.666667 0 0 0-85.333334 0 34.133333 34.133333 0 0 1-34.133333 34.133333 42.666667 42.666667 0 0 0 0 85.333334z m0 115.2a234.666667 234.666667 0 0 0 234.666667-234.666667 42.666667 42.666667 0 0 0-85.333334 0 149.333333 149.333333 0 0 1-149.333333 149.333333 42.666667 42.666667 0 0 0 0 85.333334z m0 115.2a349.866667 349.866667 0 0 0 349.866667-349.866667 42.666667 42.666667 0 0 0-85.333334 0A264.533333 264.533333 0 0 1 550.4 725.333333a42.666667 42.666667 0 0 0 0 85.333334z"  horiz-adv-x="1024" />

    
    <glyph glyph-name="ic_Search" unicode="&#58935;" d="M942.677333 30.634667c40.234667-40.234667-20.096-100.608-60.330666-60.373334l60.330666 60.373334zM260.138667 635.861333a305.493333 305.493333 0 1 1 432.042666-432.042666A305.493333 305.493333 0 0 1 260.138667 635.861333z m-60.330667-492.373333A390.826667 390.826667 0 1 0 752.512 696.192 390.826667 390.826667 0 0 0 199.808 143.488z"  horiz-adv-x="1024" />

    
    <glyph glyph-name="ic_Spreadsheets" unicode="&#58936;" d="M354.133333 311.466667v145.066666H170.666667v-145.066666h183.466666z m85.333334 0H853.333333v145.066666h-413.866666v-145.066666zM354.133333 725.333333H213.333333a42.666667 42.666667 0 0 1-42.666666-42.666666v-140.8h183.466666V725.333333z m85.333334 0v-183.466666H853.333333V682.666667a42.666667 42.666667 0 0 1-42.666666 42.666666h-371.2z m-85.333334-682.666666v183.466666H170.666667V85.333333a42.666667 42.666667 0 0 1 42.666666-42.666666h140.8z m85.333334 0H810.666667a42.666667 42.666667 0 0 1 42.666666 42.666666v140.8h-413.866666V42.666667zM85.333333 85.333333V682.666667a128 128 0 0 0 128 128h597.333334a128 128 0 0 0 128-128v-597.333334a128 128 0 0 0-128-128H213.333333a128 128 0 0 0-128 128z"  horiz-adv-x="1024" />

    
    <glyph glyph-name="ic_Goal" unicode="&#58937;" d="M841.685333 654.848A424.917333 424.917333 0 0 0 938.666667 384c0-235.648-191.018667-426.666667-426.666667-426.666667S85.333333 148.352 85.333333 384 276.352 810.666667 512 810.666667c102.058667 0 195.797333-35.84 269.226667-95.616l23.466666 23.466666 11.178667 59.52a42.666667 42.666667 0 1 0 83.882667-15.786666l-2.432-12.928 12.970666 2.432a42.666667 42.666667 0 1 0 15.744-83.882667l-63.146666-11.861333-21.205334-21.162667z m-121.173333-0.554667a341.333333 341.333333 0 1 1 60.544-60.16l-61.013333-60.928a256 256 0 1 0-60.586667 60.074667l61.013333 61.013333zM597.76 531.584a170.666667 170.666667 0 1 1 60.714667-59.946667l-64.341334-64.384A85.376 85.376 0 0 0 512 298.666667a85.333333 85.333333 0 1 0 20.906667 168.106666l64.853333 64.810667z"  horiz-adv-x="1024" />

    
    <glyph glyph-name="ic_Administration" unicode="&#58938;" d="M938.666667 682.666667v-605.098667A119.893333 119.893333 0 0 0 819.2-42.666667H204.8A119.893333 119.893333 0 0 0 85.333333 77.568V682.666667a128 128 0 0 0 128 128h597.333334a128 128 0 0 0 128-128z m-85.333334-547.413334c-13.354667-4.693333-27.733333-7.253333-42.666666-7.253333H213.333333c-14.933333 0-29.312 2.56-42.666666 7.253333v-57.685333c0-19.370667 15.36-34.901333 34.133333-34.901333h614.4c18.773333 0 34.133333 15.530667 34.133333 34.901333v57.728zM853.333333 256V682.666667a42.666667 42.666667 0 0 1-42.666666 42.666666H213.333333a42.666667 42.666667 0 0 1-42.666666-42.666666v-426.666667a42.666667 42.666667 0 0 1 42.666666-42.666667h597.333334a42.666667 42.666667 0 0 1 42.666666 42.666667z m-298.666666 384h40.661333a42.666667 42.666667 0 0 0 42.666667-42.666667v-19.370666A42.666667 42.666667 0 0 0 559.573333 554.666667h-89.642666v-42.666667H554.666667a85.333333 85.333333 0 0 0 85.333333-85.333333v-42.666667a85.333333 85.333333 0 0 0-85.333333-85.333333 42.666667 42.666667 0 0 0-85.333334 0h-42.666666a42.666667 42.666667 0 0 0-42.666667 43.733333l0.597333 23.466667A42.666667 42.666667 0 0 0 465.365333 384H554.666667v42.666667h-84.736a85.333333 85.333333 0 0 0-85.333334 85.333333V554.666667A85.333333 85.333333 0 0 0 469.333333 640a42.666667 42.666667 0 1 0 85.333334 0z"  horiz-adv-x="1024" />

    
    <glyph glyph-name="ic_Sales" unicode="&#58939;" d="M814.933333 456.533333h-16.554666c-31.146667 0-59.861333 11.050667-81.834667 29.44-21.973333-18.389333-50.645333-29.44-81.834667-29.44h-40.874666c-31.189333 0-59.861333 11.050667-81.834667 29.44-21.973333-18.389333-50.645333-29.44-81.834667-29.44h-40.917333c-31.146667 0-59.861333 11.050667-81.834667 29.44-21.930667-18.389333-50.645333-29.44-81.792-29.44H209.066667V42.666667H384v256a42.666667 42.666667 0 0 0 42.666667 42.666666h192a42.666667 42.666667 0 0 0 42.666666-42.666666v-256h153.6v413.866666z m85.333334 30.634667V38.4a81.066667 81.066667 0 0 0-81.066667-81.066667H204.8a81.066667 81.066667 0 0 0-81.066667 81.066667V487.168a112.512 112.512 0 0 0-38.4 84.48 110.933333 110.933333 0 0 0 4.821334 32.298667l44.501333 146.218666A85.333333 85.333333 0 0 0 216.32 810.666667h591.36a85.333333 85.333333 0 0 0 81.621333-60.501334l44.544-146.218666c13.226667-43.648-1.493333-88.192-33.578666-116.778667zM576 42.666667v213.333333H469.333333v-213.333333h106.666667z m276.181333 536.405333L807.68 725.333333H216.32L171.776 579.072A25.6 25.6 0 0 1 170.666667 571.605333c0-15.786667 14.848-29.738667 34.474666-29.738666h20.48c22.186667 0 39.125333 15.914667 39.125334 34.133333 0 56.874667 85.333333 56.874667 85.333333 0 0-18.218667 16.981333-34.133333 39.168-34.133333h40.917333c22.186667 0 39.168 15.914667 39.168 34.133333 0 56.874667 85.333333 56.874667 85.333334 0 0-18.218667 16.938667-34.133333 39.168-34.133333h40.874666c22.186667 0 39.168 15.914667 39.168 34.133333 0 56.874667 85.333333 56.874667 85.333334 0 0-18.218667 16.938667-34.133333 39.168-34.133333h20.48c3.413333 0 6.826667 0.426667 10.112 1.322666 18.176 4.864 27.733333 21.034667 23.210666 35.882667z"  horiz-adv-x="1024" />

    
    <glyph glyph-name="ic_Notification" unicode="&#58940;" d="M512.042667 810.666667a128 128 0 0 0 127.146666-112.682667 308.181333 308.181333 0 0 0 181.034667-280.789333v-214.101334l71.253333-141.226666a42.666667 42.666667 0 0 0-38.101333-61.866667h-220.586667a128.042667 128.042667 0 0 0-241.450666 0h-220.586667a42.666667 42.666667 0 0 0-38.101333 61.866667l71.253333 141.226666v214.101334a308.224 308.224 0 0 0 181.034667 280.746666A128.042667 128.042667 0 0 0 512.085333 810.666667z m0-170.666667a222.805333 222.805333 0 0 1-222.805334-222.805333v-224.256a42.666667 42.666667 0 0 0-4.565333-19.2L240.042667 85.333333h544l-44.586667 88.362667a42.666667 42.666667 0 0 0-4.565333 19.242667v224.256A222.805333 222.805333 0 0 1 512 640z"  horiz-adv-x="1024" />

    
    <glyph glyph-name="ic_Leaderboard" unicode="&#58941;" d="M128-42.666667a42.666667 42.666667 0 0 0-42.666667 42.666667V533.333333a85.333333 85.333333 0 0 0 85.333334 85.333334h170.666666V725.333333a85.333333 85.333333 0 0 0 85.333334 85.333334h170.666666a85.333333 85.333333 0 0 0 85.333334-85.333334v-298.666666h170.666666a85.333333 85.333333 0 0 0 85.333334-85.333334v-341.333333a42.666667 42.666667 0 0 0-42.666667-42.666667H128z m725.333333 384h-170.666666v-298.666666h170.666666v298.666666zM341.333333 533.333333H170.666667V42.666667h170.666666V533.333333zM597.333333 725.333333h-170.666666v-682.666666h170.666666V725.333333z"  horiz-adv-x="1024" />

    
    <glyph glyph-name="ic_Plus" unicode="&#58942;" d="M554.666667 426.666667h298.666666a42.666667 42.666667 0 0 0 0-85.333334h-298.666666v-298.666666a42.666667 42.666667 0 0 0-85.333334 0v298.666666H170.666667a42.666667 42.666667 0 0 0 0 85.333334h298.666666V725.333333a42.666667 42.666667 0 0 0 85.333334 0v-298.666666z"  horiz-adv-x="1024" />

    
    <glyph glyph-name="ic_Edit" unicode="&#58943;" d="M762.069333 571.904l47.573334 47.573333-104.832 104.832-47.573334-47.573333 104.832-104.832z m-60.032-60.032l-104.832 104.832-392.149333-392.149333-24.149333-128.981334 128.981333 24.149334 392.149333 392.149333z m170.154667 165.077333c31.744-31.744 31.744-83.2 0-114.986666l-511.573333-511.573334a42.453333 42.453333 0 0 0-22.186667-11.690666l-202.837333-37.973334a42.453333 42.453333 0 0 0-49.493334 49.536l37.930667 202.794667a42.453333 42.453333 0 0 0 11.690667 22.186667l511.573333 511.573333a81.28 81.28 0 0 0 114.986667 0l109.909333-109.866667zM853.76 0h-342.186667c-56.32 0-56.32 85.333333 0 85.333333h342.186667c56.32 0 56.32-85.333333 0-85.333333z"  horiz-adv-x="1024" />

    
    <glyph glyph-name="ic_Favourite" unicode="&#58944;" d="M512 118.442667l-217.6-113.578667a42.666667 42.666667 0 0 0-61.781333 45.056l41.514666 240.213333-175.786666 170.154667a42.666667 42.666667 0 0 0 23.552 72.874667l243.2 35.114666 108.672 218.709334a42.666667 42.666667 0 0 0 76.458666 0l108.672-218.709334 243.2-35.114666a42.666667 42.666667 0 0 0 23.594667-72.874667l-175.786667-170.154667 41.472-240.213333a42.666667 42.666667 0 0 0-61.781333-45.056L512 118.442667z m-19.754667 85.930666a42.666667 42.666667 0 0 0 39.509334 0l160.853333-83.968-30.634667 177.408a42.666667 42.666667 0 0 0 12.373334 37.973334l129.493333 125.354666-179.285333 25.856a42.666667 42.666667 0 0 0-32.085334 23.253334L512 672.128 431.530667 510.293333a42.666667 42.666667 0 0 0-32.085334-23.253333l-179.285333-25.856 129.536-125.397333a42.666667 42.666667 0 0 0 12.373333-37.930667l-30.677333-177.408 160.853333 83.968z"  horiz-adv-x="1024" />

    
    <glyph glyph-name="ic_ChevronLeft" unicode="&#58945;" d="M444.330667 384l183.168-183.168a42.666667 42.666667 0 0 0-60.330667-60.330667l-213.333333 213.333334a42.666667 42.666667 0 0 0 0 60.330666l213.333333 213.333334a42.666667 42.666667 0 0 0 60.330667-60.330667L444.330667 384z"  horiz-adv-x="1024" />

    
    <glyph glyph-name="ic_ChevronRight" unicode="&#58946;" d="M579.669333 384L396.501333 567.168a42.666667 42.666667 0 0 0 60.330667 60.330667l213.333333-213.333334a42.666667 42.666667 0 0 0 0-60.330666l-213.333333-213.333334a42.666667 42.666667 0 0 0-60.330667 60.330667L579.669333 384z"  horiz-adv-x="1024" />

    
    <glyph glyph-name="ic_Minus" unicode="&#58947;" d="M554.666667 426.666667h298.666666a42.666667 42.666667 0 0 0 0-85.333334H170.666667a42.666667 42.666667 0 0 0 0 85.333334h384z"  horiz-adv-x="1024" />

    
    <glyph glyph-name="ic_Dropdown" unicode="&#58948;" d="M811.712 502.656L536.96 159.232a32 32 0 0 0-49.92 0L212.288 502.656a32 32 0 0 0 24.96 52.032h549.504a32 32 0 0 0 24.96-52.032z"  horiz-adv-x="1024" />

    
    <glyph glyph-name="ic_ChevronUp" unicode="&#58949;" d="M512 451.669333l-183.168-183.168a42.666667 42.666667 0 1 0-60.330667 60.330667l213.333334 213.333333a42.666667 42.666667 0 0 0 60.330666 0l213.333334-213.333333a42.666667 42.666667 0 0 0-60.330667-60.330667L512 451.669333z"  horiz-adv-x="1024" />

    
    <glyph glyph-name="ic_UpDown" unicode="&#58950;" d="M665.6 204.8l-128-170.688a32 32 0 0 0-51.2 0l-128 170.688A32 32 0 0 0 384 256h256a32 32 0 0 0 25.6-51.2zM665.6 563.2l-128 170.688a32 32 0 0 1-51.2 0L358.4 563.2A32 32 0 0 1 384 512h256a32 32 0 0 1 25.6 51.2z"  horiz-adv-x="1024" />

    
    <glyph glyph-name="ic_ChevronDown" unicode="&#58951;" d="M512 316.330667l183.168 183.168a42.666667 42.666667 0 0 0 60.330667-60.330667l-213.333334-213.333333a42.666667 42.666667 0 0 0-60.330666 0l-213.333334 213.333333a42.666667 42.666667 0 0 0 60.330667 60.330667L512 316.330667z"  horiz-adv-x="1024" />

    
    <glyph glyph-name="ic_Block" unicode="&#58952;" d="M795.52 193.877333A341.333333 341.333333 0 0 1 321.706667 667.434667l473.813333-473.6z m-56.192-64.512L257.28 611.2a341.333333 341.333333 0 0 1 482.048-481.834667zM512 810.666667c235.648 0 426.666667-191.018667 426.666667-426.666667s-191.018667-426.666667-426.666667-426.666667S85.333333 148.352 85.333333 384 276.352 810.666667 512 810.666667z"  horiz-adv-x="1024" />

    
    <glyph glyph-name="ic_Projects" unicode="&#58953;" d="M682.666667 853.333333a298.666667 298.666667 0 0 0 298.666666-298.666666v-341.333334a298.666667 298.666667 0 0 0-298.666666-298.666666H341.333333a298.666667 298.666667 0 0 0-298.666666 298.666666V554.666667a298.666667 298.666667 0 0 0 298.666666 298.666666h341.333334z m0-85.333333H341.333333a213.333333 213.333333 0 0 1-213.333333-213.333333v-341.333334a213.333333 213.333333 0 0 1 213.333333-213.333333h341.333334a213.333333 213.333333 0 0 1 213.333333 213.333333V554.666667a213.333333 213.333333 0 0 1-213.333333 213.333333z m-33.365334-228.864a42.666667 42.666667 0 1 0 65.792-54.272l-211.2-256a42.666667 42.666667 0 0 0-62.890666-3.242667l-130.133334 128.426667a42.666667 42.666667 0 1 0 59.989334 60.757333l96.853333-95.658666z"  horiz-adv-x="1024" />

    
    <glyph glyph-name="ic_Schedule" unicode="&#58954;" d="M981.333333 170.666667a256 256 0 0 0-256-256H298.666667a256 256 0 0 0-256 256V597.333333a128 128 0 0 0 128 128h85.333333V768a42.666667 42.666667 0 0 0 37.674667 42.368L298.666667 810.666667a42.666667 42.666667 0 0 0 42.368-37.674667L341.333333 768v-42.666667h384V768a42.666667 42.666667 0 0 0 37.674667 42.368L768 810.666667a42.666667 42.666667 0 0 0 42.368-37.674667L810.666667 768v-42.666667h42.666666a128 128 0 0 0 128-128v-426.666666z m-85.333333 213.333333H128v-213.333333a170.666667 170.666667 0 0 1 170.666667-170.666667h426.666666a170.666667 170.666667 0 0 1 170.666667 170.666667v213.333333zM256 640H170.666667a42.666667 42.666667 0 0 1-42.666667-42.666667v-128h768V597.333333a42.666667 42.666667 0 0 1-42.666667 42.666667h-42.666666a42.666667 42.666667 0 0 0-85.333334 0H341.333333a42.666667 42.666667 0 0 0-85.034666-4.992L256 640z"  horiz-adv-x="1024" />

    
    </font>
</defs>
</svg>
